M48
INCH,TZ
T1C0.025
T2C0.032
T3C0.040
T4C0.047
T5C0.060
T6C0.100
T7C0.138
%
G90
G05
T1
X53937Y-51378
X58858Y-51181
X62992Y-51378
X64370Y-50787
X65551Y-50394
X66339Y-57087
X67421Y-56102
X68602Y-56004
X68602Y-57283
X68799Y-54823
X70276Y-51378
X70276Y-55413
X70276Y-57185
X71063Y-50787
X71063Y-54823
X71949Y-55512
X72047Y-50394
X75591Y-51378
X76181Y-50984
X76575Y-50591
X81791Y-51083
X82185Y-54134
X83169Y-54429
X86614Y-55020
X86713Y-56890
X94587Y-53248
X95276Y-53248
X98425Y-58760
X99705Y-59154
X100098Y-58563
X100394Y-55906
X100984Y-54921
X101969Y-55217
X104921Y-59449
X105217Y-57874
T2
X44957Y-38189
X45276Y-42807
X45276Y-43807
X46744Y-43307
X47744Y-43307
X47957Y-38189
X49287Y-38189
X49606Y-42807
X49606Y-43807
X51075Y-43307
X52075Y-43307
X52287Y-38189
X53618Y-38189
X53937Y-42807
X53937Y-43807
X55406Y-43307
X56406Y-43307
X56618Y-38189
X57949Y-38189
X58268Y-42807
X58268Y-43807
X59492Y-52437
X59492Y-55437
X59736Y-43307
X60492Y-52437
X60492Y-55437
X60736Y-43307
X60949Y-38189
X61492Y-52437
X61492Y-55437
X62280Y-38189
X62492Y-52437
X62492Y-55437
X62598Y-42807
X62598Y-43807
X63492Y-52437
X63492Y-55437
X64067Y-43307
X64492Y-52437
X64492Y-55437
X65067Y-43307
X65280Y-38189
X65492Y-52437
X65492Y-55437
X66492Y-52437
X66492Y-55437
X66610Y-38189
X66929Y-42807
X66929Y-43807
X68398Y-43307
X69398Y-43307
X69610Y-38189
X69874Y-58169
X70874Y-58169
X70941Y-38189
X71260Y-42807
X71260Y-43807
X72728Y-43307
X72878Y-52437
X72878Y-55437
X73728Y-43307
X73878Y-52437
X73878Y-55437
X73941Y-38189
X74878Y-52437
X74878Y-55437
X75272Y-38189
X75591Y-42807
X75591Y-43807
X75878Y-52437
X75878Y-55437
X76878Y-52437
X76878Y-55437
X77059Y-43307
X77878Y-52437
X77878Y-55437
X78059Y-43307
X78272Y-38189
X78878Y-52437
X78878Y-55437
X79602Y-38189
X79878Y-52437
X79878Y-55437
X79921Y-42807
X79921Y-43807
X81390Y-43307
X82390Y-43307
X82602Y-38189
X83933Y-38189
X84252Y-42807
X84252Y-43807
X85720Y-43307
X86720Y-43307
X86933Y-38189
X88264Y-38189
X88283Y-51528
X88283Y-57528
X88583Y-42807
X88583Y-43807
X89283Y-51528
X89283Y-57528
X90051Y-43701
X90283Y-51528
X90283Y-57528
X91051Y-43701
X91264Y-38189
X91283Y-51528
X91283Y-57528
X92283Y-51528
X92283Y-57528
X92594Y-38189
X92913Y-42807
X92913Y-43807
X93283Y-51528
X93283Y-57528
X94283Y-51528
X94283Y-57528
X94382Y-43307
X95283Y-51528
X95283Y-57528
X95382Y-43307
X95594Y-38189
X96283Y-51528
X96283Y-57528
X96925Y-38189
X97244Y-42807
X97244Y-43807
X97283Y-51528
X97283Y-57528
X98283Y-51528
X98283Y-57528
X98713Y-43307
X99283Y-51528
X99283Y-57528
X99311Y-53020
X99311Y-54004
X99311Y-55051
X99311Y-56035
X99713Y-43307
X99925Y-38189
X101256Y-38189
X101575Y-42807
X101575Y-43807
X102256Y-56988
X102264Y-58358
X102264Y-59358
X102339Y-60335
X103043Y-43307
X103256Y-56988
X103346Y-58161
X103346Y-59161
X104043Y-43307
X104256Y-38189
X104528Y-51134
X104528Y-52134
X104528Y-53134
X104528Y-54134
X104528Y-55134
X104528Y-56134
X104528Y-57134
X105339Y-60335
X105587Y-38189
X105906Y-42807
X105906Y-43807
X106791Y-56358
X106791Y-57358
X106791Y-58358
X106791Y-59358
X106791Y-60358
X106791Y-61358
X107374Y-43307
X108374Y-43307
X108555Y-54921
X108587Y-38189
X109154Y-51862
X109154Y-52862
X109555Y-54921
X109917Y-38189
X110236Y-42807
X110236Y-43807
X111508Y-57874
X111705Y-43307
X111909Y-52240
X111909Y-55240
X112098Y-50197
X112508Y-57874
X112705Y-43307
X112917Y-38189
X113098Y-50197
X115945Y-35130
X115945Y-36130
X115945Y-38673
X115945Y-39673
T3
X40945Y-57161
X40945Y-58161
X40945Y-59161
X40945Y-60161
X45457Y-40157
X46457Y-40157
X47457Y-40157
X49787Y-40157
X50787Y-40157
X51787Y-40157
X54118Y-40157
X55118Y-40157
X56118Y-40157
X58449Y-40157
X59449Y-40157
X60449Y-40157
X62780Y-40157
X63780Y-40157
X64780Y-40157
X67110Y-40157
X68110Y-40157
X69110Y-40157
X71441Y-40157
X72441Y-40157
X73441Y-40157
X75772Y-40157
X76772Y-40157
X77772Y-40157
X80102Y-40157
X81102Y-40157
X82102Y-40157
X83252Y-57283
X84252Y-57283
X84433Y-40157
X85252Y-57283
X85433Y-40157
X86433Y-40157
X88764Y-40157
X89764Y-40157
X90764Y-40157
X92274Y-60573
X92274Y-61573
X93094Y-40157
X94094Y-40157
X95094Y-40157
X97425Y-40157
X98425Y-40157
X99425Y-40157
X101756Y-40157
X102756Y-40157
X103756Y-40157
X106087Y-40157
X107087Y-40157
X108087Y-40157
X110417Y-40157
X111417Y-40157
X111508Y-56594
X112417Y-40157
X112508Y-56594
X114665Y-52740
X114665Y-53740
X114665Y-54740
X116240Y-57161
X116240Y-58161
X116240Y-59161
X116240Y-60161
T4
X45472Y-45965
X45472Y-47736
X47835Y-45965
X47835Y-47736
X49803Y-45965
X49803Y-47736
X52165Y-45965
X52165Y-47736
X54134Y-45965
X54134Y-47736
X56496Y-45965
X56496Y-47736
X58465Y-45965
X58465Y-47736
X60827Y-45965
X60827Y-47736
X62795Y-45965
X62795Y-47736
X65157Y-45965
X65157Y-47736
X67126Y-45965
X67126Y-47736
X69488Y-45965
X69488Y-47736
X71457Y-45965
X71457Y-47736
X73819Y-45965
X73819Y-47736
X75787Y-45965
X75787Y-47736
X78150Y-45965
X78150Y-47736
X80118Y-45965
X80118Y-47736
X82480Y-45965
X82480Y-47736
X84449Y-45965
X84449Y-47736
X86811Y-45965
X86811Y-47736
X88780Y-45965
X88780Y-47736
X91142Y-45965
X91142Y-47736
X93110Y-45965
X93110Y-47736
X95472Y-45965
X95472Y-47736
X97441Y-45965
X97441Y-47736
X99803Y-45965
X99803Y-47736
X101772Y-45965
X101772Y-47736
X104134Y-45965
X104134Y-47736
X106102Y-45965
X106102Y-47736
X108465Y-45965
X108465Y-47736
X110433Y-45965
X110433Y-47736
X112795Y-45965
X112795Y-47736
T5
X45457Y-33858
X47457Y-33858
X49787Y-33858
X51787Y-33858
X54118Y-33858
X56118Y-33858
X58449Y-33858
X60449Y-33858
X62780Y-33858
X64780Y-33858
X67110Y-33858
X69110Y-33858
X71441Y-33858
X73441Y-33858
X75772Y-33858
X77772Y-33858
X80102Y-33858
X82102Y-33858
X84433Y-33858
X86433Y-33858
X88764Y-33858
X90764Y-33858
X93094Y-33858
X95094Y-33858
X97425Y-33858
X99425Y-33858
X101756Y-33858
X103756Y-33858
X106087Y-33858
X108087Y-33858
X110417Y-33858
X112417Y-33858
X116142Y-42701
X116142Y-44701
X116142Y-48016
X116142Y-50016
T6
X116634Y-53740
T7
X41600Y-32600
X43200Y-61600
X115600Y-61800
X116000Y-32600
T0
M30
