G04 (created by PCBNEW (2013-07-07 BZR 4022)-stable) date 08/05/2015 11:05:53*
%MOIN*%
G04 Gerber Fmt 3.4, Leading zero omitted, Abs format*
%FSLAX34Y34*%
G01*
G70*
G90*
G04 APERTURE LIST*
%ADD10C,0.00590551*%
%ADD11C,0.0787402*%
%ADD12C,0.055*%
%ADD13R,0.06X0.06*%
%ADD14C,0.06*%
%ADD15C,0.066*%
%ADD16R,0.062X0.09*%
%ADD17O,0.062X0.09*%
%ADD18R,0.055X0.055*%
%ADD19R,0.065X0.065*%
%ADD20C,0.065*%
%ADD21R,0.1X0.1*%
%ADD22C,0.1*%
%ADD23C,0.07*%
%ADD24R,0.07X0.07*%
%ADD25R,0.12X0.12*%
%ADD26R,0.067X0.12*%
%ADD27R,0.12X0.05*%
%ADD28C,0.05*%
%ADD29R,0.05X0.12*%
%ADD30O,0.1X0.0590551*%
%ADD31R,0.1X0.0590551*%
%ADD32C,0.0590551*%
%ADD33C,0.137795*%
G04 APERTURE END LIST*
G54D10*
G54D11*
X67125Y-45964D03*
X69488Y-45964D03*
X67125Y-47736D03*
X69488Y-47736D03*
X54133Y-45964D03*
X56496Y-45964D03*
X54133Y-47736D03*
X56496Y-47736D03*
X71456Y-45964D03*
X73818Y-45964D03*
X71456Y-47736D03*
X73818Y-47736D03*
X88779Y-45964D03*
X91141Y-45964D03*
X88779Y-47736D03*
X91141Y-47736D03*
X62795Y-45964D03*
X65157Y-45964D03*
X62795Y-47736D03*
X65157Y-47736D03*
X84448Y-45964D03*
X86811Y-45964D03*
X84448Y-47736D03*
X86811Y-47736D03*
X58464Y-45964D03*
X60826Y-45964D03*
X58464Y-47736D03*
X60826Y-47736D03*
X75787Y-45964D03*
X78149Y-45964D03*
X75787Y-47736D03*
X78149Y-47736D03*
X93110Y-45964D03*
X95472Y-45964D03*
X93110Y-47736D03*
X95472Y-47736D03*
X80118Y-45964D03*
X82480Y-45964D03*
X80118Y-47736D03*
X82480Y-47736D03*
X106102Y-45964D03*
X108464Y-45964D03*
X106102Y-47736D03*
X108464Y-47736D03*
X49803Y-45964D03*
X52165Y-45964D03*
X49803Y-47736D03*
X52165Y-47736D03*
X101771Y-45964D03*
X104133Y-45964D03*
X101771Y-47736D03*
X104133Y-47736D03*
X97440Y-45964D03*
X99803Y-45964D03*
X97440Y-47736D03*
X99803Y-47736D03*
X45472Y-45964D03*
X47834Y-45964D03*
X45472Y-47736D03*
X47834Y-47736D03*
X110433Y-45964D03*
X112795Y-45964D03*
X110433Y-47736D03*
X112795Y-47736D03*
G54D12*
X102338Y-60334D03*
X105338Y-60334D03*
X110236Y-43807D03*
X110236Y-42807D03*
X84251Y-43807D03*
X84251Y-42807D03*
X66929Y-43807D03*
X66929Y-42807D03*
X105905Y-43807D03*
X105905Y-42807D03*
X71259Y-43807D03*
X71259Y-42807D03*
X92913Y-43807D03*
X92913Y-42807D03*
X102255Y-56988D03*
X103255Y-56988D03*
X75590Y-43807D03*
X75590Y-42807D03*
X102263Y-58358D03*
X102263Y-59358D03*
X79921Y-43807D03*
X79921Y-42807D03*
X103346Y-59161D03*
X103346Y-58161D03*
X88582Y-43807D03*
X88582Y-42807D03*
X49606Y-43807D03*
X49606Y-42807D03*
X45275Y-43807D03*
X45275Y-42807D03*
X53937Y-43807D03*
X53937Y-42807D03*
X101574Y-43807D03*
X101574Y-42807D03*
X58267Y-43807D03*
X58267Y-42807D03*
X97244Y-43807D03*
X97244Y-42807D03*
X62598Y-43807D03*
X62598Y-42807D03*
G54D13*
X111507Y-56594D03*
G54D14*
X112507Y-56594D03*
G54D15*
X85720Y-43307D03*
X86720Y-43307D03*
X107374Y-43307D03*
X108374Y-43307D03*
X111704Y-43307D03*
X112704Y-43307D03*
X98712Y-43307D03*
X99712Y-43307D03*
X90051Y-43700D03*
X91051Y-43700D03*
X77059Y-43307D03*
X78059Y-43307D03*
X94381Y-43307D03*
X95381Y-43307D03*
X103043Y-43307D03*
X104043Y-43307D03*
X81389Y-43307D03*
X82389Y-43307D03*
X46744Y-43307D03*
X47744Y-43307D03*
X72728Y-43307D03*
X73728Y-43307D03*
X51074Y-43307D03*
X52074Y-43307D03*
X68397Y-43307D03*
X69397Y-43307D03*
X55405Y-43307D03*
X56405Y-43307D03*
X59736Y-43307D03*
X60736Y-43307D03*
X64066Y-43307D03*
X65066Y-43307D03*
G54D16*
X72877Y-55437D03*
G54D17*
X73877Y-55437D03*
X74877Y-55437D03*
X75877Y-55437D03*
X76877Y-55437D03*
X77877Y-55437D03*
X78877Y-55437D03*
X79877Y-55437D03*
X79877Y-52437D03*
X78877Y-52437D03*
X77877Y-52437D03*
X76877Y-52437D03*
X75877Y-52437D03*
X74877Y-52437D03*
X73877Y-52437D03*
X72877Y-52437D03*
G54D16*
X59492Y-55437D03*
G54D17*
X60492Y-55437D03*
X61492Y-55437D03*
X62492Y-55437D03*
X63492Y-55437D03*
X64492Y-55437D03*
X65492Y-55437D03*
X66492Y-55437D03*
X66492Y-52437D03*
X65492Y-52437D03*
X64492Y-52437D03*
X63492Y-52437D03*
X62492Y-52437D03*
X61492Y-52437D03*
X60492Y-52437D03*
X59492Y-52437D03*
G54D18*
X86933Y-38188D03*
G54D12*
X83933Y-38188D03*
G54D18*
X82602Y-38188D03*
G54D12*
X79602Y-38188D03*
G54D18*
X78271Y-38188D03*
G54D12*
X75271Y-38188D03*
G54D18*
X108586Y-38188D03*
G54D12*
X105586Y-38188D03*
G54D18*
X111909Y-52240D03*
G54D12*
X111909Y-55240D03*
G54D18*
X104255Y-38188D03*
G54D12*
X101255Y-38188D03*
G54D18*
X112917Y-38188D03*
G54D12*
X109917Y-38188D03*
G54D18*
X65279Y-38188D03*
G54D12*
X62279Y-38188D03*
G54D18*
X47956Y-38188D03*
G54D12*
X44956Y-38188D03*
G54D18*
X99925Y-38188D03*
G54D12*
X96925Y-38188D03*
G54D18*
X52287Y-38188D03*
G54D12*
X49287Y-38188D03*
G54D18*
X73940Y-38188D03*
G54D12*
X70940Y-38188D03*
G54D18*
X56618Y-38188D03*
G54D12*
X53618Y-38188D03*
G54D18*
X69610Y-38188D03*
G54D12*
X66610Y-38188D03*
G54D18*
X95594Y-38188D03*
G54D12*
X92594Y-38188D03*
G54D18*
X60948Y-38188D03*
G54D12*
X57948Y-38188D03*
G54D18*
X91263Y-38188D03*
G54D12*
X88263Y-38188D03*
G54D19*
X109153Y-51862D03*
G54D20*
X109153Y-52862D03*
G54D19*
X115944Y-39673D03*
G54D20*
X115944Y-38673D03*
G54D12*
X113098Y-50196D03*
X112098Y-50196D03*
X112507Y-57874D03*
X111507Y-57874D03*
X70874Y-58169D03*
X69874Y-58169D03*
X109555Y-54921D03*
X108555Y-54921D03*
X115944Y-36129D03*
X115944Y-35129D03*
G54D18*
X106791Y-61358D03*
G54D12*
X106791Y-60358D03*
X106791Y-59358D03*
X106791Y-58358D03*
X106791Y-57358D03*
X106791Y-56358D03*
G54D21*
X110417Y-33858D03*
G54D22*
X112417Y-33858D03*
G54D21*
X106086Y-33858D03*
G54D22*
X108086Y-33858D03*
G54D21*
X101755Y-33858D03*
G54D22*
X103755Y-33858D03*
G54D21*
X97425Y-33858D03*
G54D22*
X99425Y-33858D03*
G54D21*
X93094Y-33858D03*
G54D22*
X95094Y-33858D03*
G54D21*
X88763Y-33858D03*
G54D22*
X90763Y-33858D03*
G54D21*
X84433Y-33858D03*
G54D22*
X86433Y-33858D03*
G54D21*
X80102Y-33858D03*
G54D22*
X82102Y-33858D03*
G54D21*
X75771Y-33858D03*
G54D22*
X77771Y-33858D03*
G54D21*
X71440Y-33858D03*
G54D22*
X73440Y-33858D03*
G54D21*
X67110Y-33858D03*
G54D22*
X69110Y-33858D03*
G54D21*
X62779Y-33858D03*
G54D22*
X64779Y-33858D03*
G54D21*
X58448Y-33858D03*
G54D22*
X60448Y-33858D03*
G54D21*
X54118Y-33858D03*
G54D22*
X56118Y-33858D03*
G54D21*
X49787Y-33858D03*
G54D22*
X51787Y-33858D03*
G54D21*
X45456Y-33858D03*
G54D22*
X47456Y-33858D03*
G54D21*
X116141Y-48015D03*
G54D22*
X116141Y-50015D03*
G54D21*
X116141Y-42700D03*
G54D22*
X116141Y-44700D03*
G54D23*
X88763Y-40157D03*
X89763Y-40157D03*
G54D24*
X90763Y-40157D03*
G54D23*
X54118Y-40157D03*
X55118Y-40157D03*
G54D24*
X56118Y-40157D03*
G54D23*
X97425Y-40157D03*
X98425Y-40157D03*
G54D24*
X99425Y-40157D03*
G54D23*
X49787Y-40157D03*
X50787Y-40157D03*
G54D24*
X51787Y-40157D03*
G54D23*
X58448Y-40157D03*
X59448Y-40157D03*
G54D24*
X60448Y-40157D03*
G54D23*
X93094Y-40157D03*
X94094Y-40157D03*
G54D24*
X95094Y-40157D03*
G54D23*
X45456Y-40157D03*
X46456Y-40157D03*
G54D24*
X47456Y-40157D03*
G54D23*
X62779Y-40157D03*
X63779Y-40157D03*
G54D24*
X64779Y-40157D03*
G54D23*
X101755Y-40157D03*
X102755Y-40157D03*
G54D24*
X103755Y-40157D03*
G54D23*
X67110Y-40157D03*
X68110Y-40157D03*
G54D24*
X69110Y-40157D03*
G54D23*
X106086Y-40157D03*
X107086Y-40157D03*
G54D24*
X108086Y-40157D03*
G54D23*
X71440Y-40157D03*
X72440Y-40157D03*
G54D24*
X73440Y-40157D03*
G54D23*
X110417Y-40157D03*
X111417Y-40157D03*
G54D24*
X112417Y-40157D03*
G54D23*
X75771Y-40157D03*
X76771Y-40157D03*
G54D24*
X77771Y-40157D03*
G54D23*
X84433Y-40157D03*
X85433Y-40157D03*
G54D24*
X86433Y-40157D03*
G54D23*
X80102Y-40157D03*
X81102Y-40157D03*
G54D24*
X82102Y-40157D03*
G54D23*
X114665Y-52740D03*
X114665Y-53740D03*
G54D24*
X114665Y-54740D03*
G54D25*
X116633Y-53740D03*
G54D26*
X88283Y-57527D03*
X89283Y-57527D03*
X90283Y-57527D03*
X91283Y-57527D03*
X92283Y-57527D03*
X93283Y-57527D03*
X94283Y-57527D03*
X95283Y-57527D03*
X96283Y-57527D03*
X97283Y-57527D03*
X98283Y-57527D03*
X99283Y-57527D03*
G54D27*
X99311Y-56035D03*
X99311Y-55051D03*
X99311Y-54003D03*
X99311Y-53019D03*
G54D12*
X99283Y-51527D03*
G54D28*
X98283Y-51527D03*
G54D29*
X97283Y-51527D03*
G54D26*
X96283Y-51527D03*
X95283Y-51527D03*
X94283Y-51527D03*
X93283Y-51527D03*
X92283Y-51527D03*
X91283Y-51527D03*
X90283Y-51527D03*
X89283Y-51527D03*
X88283Y-51527D03*
G54D13*
X116240Y-60161D03*
G54D14*
X116240Y-59161D03*
X116240Y-58161D03*
X116240Y-57161D03*
G54D13*
X40944Y-60161D03*
G54D14*
X40944Y-59161D03*
X40944Y-58161D03*
X40944Y-57161D03*
G54D13*
X92273Y-60572D03*
G54D14*
X92273Y-61572D03*
G54D30*
X104527Y-57133D03*
G54D31*
X104527Y-56133D03*
G54D30*
X104527Y-55133D03*
G54D32*
X104527Y-54133D03*
X104527Y-53133D03*
X104527Y-52133D03*
X104527Y-51133D03*
G54D13*
X85251Y-57283D03*
G54D14*
X84251Y-57283D03*
X83251Y-57283D03*
G54D33*
X43200Y-61600D03*
X41600Y-32600D03*
X116000Y-32600D03*
X115600Y-61800D03*
M02*
