G04 (created by PCBNEW (2013-07-07 BZR 4022)-stable) date 08/05/2015 11:09:29*
%MOIN*%
G04 Gerber Fmt 3.4, Leading zero omitted, Abs format*
%FSLAX34Y34*%
G01*
G70*
G90*
G04 APERTURE LIST*
%ADD10C,0.00590551*%
%ADD11C,0.00787402*%
%ADD12C,0.011811*%
%ADD13C,0.008*%
%ADD14C,0.015*%
%ADD15C,0.006*%
%ADD16C,0.003*%
%ADD17C,0.01*%
%ADD18C,0.012*%
%ADD19C,0.0035*%
%ADD20C,0.01125*%
%ADD21C,0.0107*%
G04 APERTURE END LIST*
G54D10*
G54D11*
X52400Y-56800D02*
X54400Y-54800D01*
X44600Y-56800D02*
X52400Y-56800D01*
G54D12*
X84960Y-58092D02*
X85551Y-58092D01*
X85129Y-58289D01*
X85551Y-58486D01*
X84960Y-58486D01*
X84960Y-59020D02*
X85270Y-59020D01*
X85326Y-58992D01*
X85354Y-58935D01*
X85354Y-58823D01*
X85326Y-58767D01*
X84989Y-59020D02*
X84960Y-58964D01*
X84960Y-58823D01*
X84989Y-58767D01*
X85045Y-58739D01*
X85101Y-58739D01*
X85157Y-58767D01*
X85185Y-58823D01*
X85185Y-58964D01*
X85214Y-59020D01*
X84989Y-59273D02*
X84960Y-59329D01*
X84960Y-59442D01*
X84989Y-59498D01*
X85045Y-59526D01*
X85073Y-59526D01*
X85129Y-59498D01*
X85157Y-59442D01*
X85157Y-59357D01*
X85185Y-59301D01*
X85242Y-59273D01*
X85270Y-59273D01*
X85326Y-59301D01*
X85354Y-59357D01*
X85354Y-59442D01*
X85326Y-59498D01*
X85354Y-59695D02*
X85354Y-59920D01*
X85551Y-59779D02*
X85045Y-59779D01*
X84989Y-59807D01*
X84960Y-59864D01*
X84960Y-59920D01*
X84989Y-60342D02*
X84960Y-60285D01*
X84960Y-60173D01*
X84989Y-60117D01*
X85045Y-60088D01*
X85270Y-60088D01*
X85326Y-60117D01*
X85354Y-60173D01*
X85354Y-60285D01*
X85326Y-60342D01*
X85270Y-60370D01*
X85214Y-60370D01*
X85157Y-60088D01*
X84960Y-60623D02*
X85354Y-60623D01*
X85242Y-60623D02*
X85298Y-60651D01*
X85326Y-60679D01*
X85354Y-60735D01*
X85354Y-60792D01*
X83099Y-58331D02*
X83071Y-58415D01*
X83071Y-58556D01*
X83099Y-58612D01*
X83127Y-58640D01*
X83183Y-58668D01*
X83239Y-58668D01*
X83296Y-58640D01*
X83324Y-58612D01*
X83352Y-58556D01*
X83380Y-58443D01*
X83408Y-58387D01*
X83436Y-58359D01*
X83493Y-58331D01*
X83549Y-58331D01*
X83605Y-58359D01*
X83633Y-58387D01*
X83661Y-58443D01*
X83661Y-58584D01*
X83633Y-58668D01*
X83071Y-59006D02*
X83099Y-58950D01*
X83155Y-58921D01*
X83661Y-58921D01*
X83071Y-59484D02*
X83380Y-59484D01*
X83436Y-59456D01*
X83464Y-59400D01*
X83464Y-59287D01*
X83436Y-59231D01*
X83099Y-59484D02*
X83071Y-59428D01*
X83071Y-59287D01*
X83099Y-59231D01*
X83155Y-59203D01*
X83211Y-59203D01*
X83268Y-59231D01*
X83296Y-59287D01*
X83296Y-59428D01*
X83324Y-59484D01*
X83464Y-59709D02*
X83071Y-59849D01*
X83464Y-59990D01*
X83099Y-60440D02*
X83071Y-60384D01*
X83071Y-60271D01*
X83099Y-60215D01*
X83155Y-60187D01*
X83380Y-60187D01*
X83436Y-60215D01*
X83464Y-60271D01*
X83464Y-60384D01*
X83436Y-60440D01*
X83380Y-60468D01*
X83324Y-60468D01*
X83268Y-60187D01*
X93212Y-60248D02*
X93325Y-60248D01*
X93381Y-60276D01*
X93437Y-60332D01*
X93465Y-60445D01*
X93465Y-60642D01*
X93437Y-60754D01*
X93381Y-60810D01*
X93325Y-60839D01*
X93212Y-60839D01*
X93156Y-60810D01*
X93100Y-60754D01*
X93072Y-60642D01*
X93072Y-60445D01*
X93100Y-60332D01*
X93156Y-60276D01*
X93212Y-60248D01*
X93719Y-60445D02*
X93719Y-60839D01*
X93719Y-60501D02*
X93747Y-60473D01*
X93803Y-60445D01*
X93887Y-60445D01*
X93943Y-60473D01*
X93972Y-60529D01*
X93972Y-60839D01*
X94703Y-60614D02*
X95153Y-60614D01*
X95884Y-60839D02*
X95884Y-60248D01*
X96081Y-60670D01*
X96278Y-60248D01*
X96278Y-60839D01*
X96812Y-60839D02*
X96812Y-60529D01*
X96784Y-60473D01*
X96728Y-60445D01*
X96615Y-60445D01*
X96559Y-60473D01*
X96812Y-60810D02*
X96756Y-60839D01*
X96615Y-60839D01*
X96559Y-60810D01*
X96531Y-60754D01*
X96531Y-60698D01*
X96559Y-60642D01*
X96615Y-60614D01*
X96756Y-60614D01*
X96812Y-60585D01*
X97065Y-60810D02*
X97121Y-60839D01*
X97234Y-60839D01*
X97290Y-60810D01*
X97318Y-60754D01*
X97318Y-60726D01*
X97290Y-60670D01*
X97234Y-60642D01*
X97149Y-60642D01*
X97093Y-60614D01*
X97065Y-60557D01*
X97065Y-60529D01*
X97093Y-60473D01*
X97149Y-60445D01*
X97234Y-60445D01*
X97290Y-60473D01*
X97487Y-60445D02*
X97712Y-60445D01*
X97571Y-60248D02*
X97571Y-60754D01*
X97599Y-60810D01*
X97656Y-60839D01*
X97712Y-60839D01*
X98134Y-60810D02*
X98077Y-60839D01*
X97965Y-60839D01*
X97909Y-60810D01*
X97880Y-60754D01*
X97880Y-60529D01*
X97909Y-60473D01*
X97965Y-60445D01*
X98077Y-60445D01*
X98134Y-60473D01*
X98162Y-60529D01*
X98162Y-60585D01*
X97880Y-60642D01*
X98415Y-60839D02*
X98415Y-60445D01*
X98415Y-60557D02*
X98443Y-60501D01*
X98471Y-60473D01*
X98527Y-60445D01*
X98584Y-60445D01*
X93409Y-61193D02*
X93522Y-61193D01*
X93578Y-61221D01*
X93634Y-61277D01*
X93662Y-61390D01*
X93662Y-61587D01*
X93634Y-61699D01*
X93578Y-61755D01*
X93522Y-61783D01*
X93409Y-61783D01*
X93353Y-61755D01*
X93297Y-61699D01*
X93269Y-61587D01*
X93269Y-61390D01*
X93297Y-61277D01*
X93353Y-61221D01*
X93409Y-61193D01*
X93831Y-61390D02*
X94056Y-61390D01*
X93915Y-61783D02*
X93915Y-61277D01*
X93943Y-61221D01*
X94000Y-61193D01*
X94056Y-61193D01*
X94168Y-61390D02*
X94393Y-61390D01*
X94253Y-61783D02*
X94253Y-61277D01*
X94281Y-61221D01*
X94337Y-61193D01*
X94393Y-61193D01*
X95040Y-61558D02*
X95490Y-61558D01*
X96193Y-61755D02*
X96278Y-61783D01*
X96418Y-61783D01*
X96474Y-61755D01*
X96503Y-61727D01*
X96531Y-61671D01*
X96531Y-61615D01*
X96503Y-61558D01*
X96474Y-61530D01*
X96418Y-61502D01*
X96306Y-61474D01*
X96249Y-61446D01*
X96221Y-61418D01*
X96193Y-61362D01*
X96193Y-61305D01*
X96221Y-61249D01*
X96249Y-61221D01*
X96306Y-61193D01*
X96446Y-61193D01*
X96531Y-61221D01*
X96868Y-61783D02*
X96812Y-61755D01*
X96784Y-61699D01*
X96784Y-61193D01*
X97346Y-61783D02*
X97346Y-61474D01*
X97318Y-61418D01*
X97262Y-61390D01*
X97149Y-61390D01*
X97093Y-61418D01*
X97346Y-61755D02*
X97290Y-61783D01*
X97149Y-61783D01*
X97093Y-61755D01*
X97065Y-61699D01*
X97065Y-61643D01*
X97093Y-61587D01*
X97149Y-61558D01*
X97290Y-61558D01*
X97346Y-61530D01*
X97571Y-61390D02*
X97712Y-61783D01*
X97852Y-61390D01*
X98302Y-61755D02*
X98246Y-61783D01*
X98134Y-61783D01*
X98077Y-61755D01*
X98049Y-61699D01*
X98049Y-61474D01*
X98077Y-61418D01*
X98134Y-61390D01*
X98246Y-61390D01*
X98302Y-61418D01*
X98330Y-61474D01*
X98330Y-61530D01*
X98049Y-61587D01*
X102613Y-36853D02*
X102276Y-36853D01*
X102444Y-36853D02*
X102518Y-36262D01*
X102451Y-36347D01*
X102388Y-36403D01*
X102328Y-36431D01*
X103168Y-36459D02*
X103119Y-36853D01*
X103056Y-36234D02*
X102863Y-36656D01*
X103228Y-36656D01*
X106944Y-36853D02*
X106606Y-36853D01*
X106775Y-36853D02*
X106849Y-36262D01*
X106782Y-36347D01*
X106719Y-36403D01*
X106659Y-36431D01*
X107552Y-36262D02*
X107271Y-36262D01*
X107207Y-36543D01*
X107239Y-36515D01*
X107299Y-36487D01*
X107439Y-36487D01*
X107492Y-36515D01*
X107517Y-36543D01*
X107538Y-36600D01*
X107520Y-36740D01*
X107485Y-36796D01*
X107453Y-36825D01*
X107394Y-36853D01*
X107253Y-36853D01*
X107200Y-36825D01*
X107176Y-36796D01*
X111274Y-36853D02*
X110937Y-36853D01*
X111106Y-36853D02*
X111180Y-36262D01*
X111113Y-36347D01*
X111049Y-36403D01*
X110990Y-36431D01*
X111854Y-36262D02*
X111742Y-36262D01*
X111682Y-36290D01*
X111651Y-36318D01*
X111584Y-36403D01*
X111542Y-36515D01*
X111513Y-36740D01*
X111535Y-36796D01*
X111559Y-36825D01*
X111612Y-36853D01*
X111724Y-36853D01*
X111784Y-36825D01*
X111816Y-36796D01*
X111851Y-36740D01*
X111869Y-36600D01*
X111847Y-36543D01*
X111823Y-36515D01*
X111770Y-36487D01*
X111658Y-36487D01*
X111598Y-36515D01*
X111566Y-36543D01*
X111531Y-36600D01*
X98282Y-36853D02*
X97945Y-36853D01*
X98114Y-36853D02*
X98187Y-36262D01*
X98121Y-36347D01*
X98057Y-36403D01*
X97998Y-36431D01*
X98553Y-36262D02*
X98919Y-36262D01*
X98694Y-36487D01*
X98778Y-36487D01*
X98831Y-36515D01*
X98855Y-36543D01*
X98876Y-36600D01*
X98859Y-36740D01*
X98824Y-36796D01*
X98792Y-36825D01*
X98732Y-36853D01*
X98564Y-36853D01*
X98511Y-36825D01*
X98486Y-36796D01*
X72288Y-36262D02*
X72681Y-36262D01*
X72354Y-36853D01*
X76727Y-36515D02*
X76674Y-36487D01*
X76650Y-36459D01*
X76629Y-36403D01*
X76632Y-36375D01*
X76667Y-36318D01*
X76699Y-36290D01*
X76759Y-36262D01*
X76871Y-36262D01*
X76924Y-36290D01*
X76949Y-36318D01*
X76970Y-36375D01*
X76966Y-36403D01*
X76931Y-36459D01*
X76899Y-36487D01*
X76840Y-36515D01*
X76727Y-36515D01*
X76667Y-36543D01*
X76636Y-36571D01*
X76601Y-36628D01*
X76587Y-36740D01*
X76608Y-36796D01*
X76632Y-36825D01*
X76685Y-36853D01*
X76798Y-36853D01*
X76857Y-36825D01*
X76889Y-36796D01*
X76924Y-36740D01*
X76938Y-36628D01*
X76917Y-36571D01*
X76892Y-36543D01*
X76840Y-36515D01*
X80959Y-36853D02*
X81072Y-36853D01*
X81132Y-36825D01*
X81163Y-36796D01*
X81230Y-36712D01*
X81272Y-36600D01*
X81300Y-36375D01*
X81279Y-36318D01*
X81255Y-36290D01*
X81202Y-36262D01*
X81090Y-36262D01*
X81030Y-36290D01*
X80998Y-36318D01*
X80963Y-36375D01*
X80945Y-36515D01*
X80967Y-36571D01*
X80991Y-36600D01*
X81044Y-36628D01*
X81156Y-36628D01*
X81216Y-36600D01*
X81248Y-36571D01*
X81283Y-36515D01*
X93952Y-36853D02*
X93614Y-36853D01*
X93783Y-36853D02*
X93857Y-36262D01*
X93790Y-36347D01*
X93727Y-36403D01*
X93667Y-36431D01*
X94243Y-36318D02*
X94275Y-36290D01*
X94335Y-36262D01*
X94475Y-36262D01*
X94528Y-36290D01*
X94553Y-36318D01*
X94574Y-36375D01*
X94567Y-36431D01*
X94528Y-36515D01*
X94148Y-36853D01*
X94514Y-36853D01*
X89621Y-36853D02*
X89283Y-36853D01*
X89452Y-36853D02*
X89526Y-36262D01*
X89459Y-36347D01*
X89396Y-36403D01*
X89336Y-36431D01*
X90183Y-36853D02*
X89846Y-36853D01*
X90015Y-36853D02*
X90088Y-36262D01*
X90022Y-36347D01*
X89958Y-36403D01*
X89899Y-36431D01*
X85290Y-36853D02*
X84953Y-36853D01*
X85121Y-36853D02*
X85195Y-36262D01*
X85129Y-36347D01*
X85065Y-36403D01*
X85005Y-36431D01*
X85730Y-36262D02*
X85786Y-36262D01*
X85839Y-36290D01*
X85863Y-36318D01*
X85884Y-36375D01*
X85898Y-36487D01*
X85881Y-36628D01*
X85839Y-36740D01*
X85803Y-36796D01*
X85772Y-36825D01*
X85712Y-36853D01*
X85656Y-36853D01*
X85603Y-36825D01*
X85578Y-36796D01*
X85557Y-36740D01*
X85543Y-36628D01*
X85561Y-36487D01*
X85603Y-36375D01*
X85638Y-36318D01*
X85670Y-36290D01*
X85730Y-36262D01*
X59580Y-36459D02*
X59531Y-36853D01*
X59468Y-36234D02*
X59274Y-36656D01*
X59640Y-36656D01*
X63964Y-36262D02*
X63682Y-36262D01*
X63619Y-36543D01*
X63651Y-36515D01*
X63710Y-36487D01*
X63851Y-36487D01*
X63904Y-36515D01*
X63928Y-36543D01*
X63950Y-36600D01*
X63932Y-36740D01*
X63897Y-36796D01*
X63865Y-36825D01*
X63805Y-36853D01*
X63665Y-36853D01*
X63612Y-36825D01*
X63587Y-36796D01*
X68266Y-36262D02*
X68154Y-36262D01*
X68094Y-36290D01*
X68062Y-36318D01*
X67995Y-36403D01*
X67953Y-36515D01*
X67925Y-36740D01*
X67946Y-36796D01*
X67971Y-36825D01*
X68024Y-36853D01*
X68136Y-36853D01*
X68196Y-36825D01*
X68227Y-36796D01*
X68263Y-36740D01*
X68280Y-36600D01*
X68259Y-36543D01*
X68235Y-36515D01*
X68182Y-36487D01*
X68069Y-36487D01*
X68010Y-36515D01*
X67978Y-36543D01*
X67943Y-36600D01*
X54965Y-36262D02*
X55330Y-36262D01*
X55105Y-36487D01*
X55190Y-36487D01*
X55242Y-36515D01*
X55267Y-36543D01*
X55288Y-36600D01*
X55271Y-36740D01*
X55235Y-36796D01*
X55204Y-36825D01*
X55144Y-36853D01*
X54975Y-36853D01*
X54923Y-36825D01*
X54898Y-36796D01*
X50655Y-36318D02*
X50687Y-36290D01*
X50746Y-36262D01*
X50887Y-36262D01*
X50940Y-36290D01*
X50964Y-36318D01*
X50986Y-36375D01*
X50978Y-36431D01*
X50940Y-36515D01*
X50560Y-36853D01*
X50926Y-36853D01*
X46595Y-36853D02*
X46258Y-36853D01*
X46426Y-36853D02*
X46500Y-36262D01*
X46433Y-36347D01*
X46370Y-36403D01*
X46310Y-36431D01*
G54D10*
X68110Y-46688D02*
X68010Y-46688D01*
X68010Y-46688D02*
X68010Y-46988D01*
X68010Y-46988D02*
X68110Y-46988D01*
X68110Y-46588D02*
X68110Y-47088D01*
X67810Y-47788D02*
X68810Y-47788D01*
X68310Y-46988D02*
X68310Y-47788D01*
X68310Y-45888D02*
X68310Y-46688D01*
X67810Y-45888D02*
X68810Y-45888D01*
X68937Y-46850D02*
G75*
G03X68937Y-46850I-630J0D01*
G74*
G01*
X66535Y-45374D02*
X66535Y-48326D01*
X66535Y-48326D02*
X70078Y-48326D01*
X70078Y-48326D02*
X70078Y-45374D01*
X70078Y-45374D02*
X66535Y-45374D01*
X55118Y-46688D02*
X55018Y-46688D01*
X55018Y-46688D02*
X55018Y-46988D01*
X55018Y-46988D02*
X55118Y-46988D01*
X55118Y-46588D02*
X55118Y-47088D01*
X54818Y-47788D02*
X55818Y-47788D01*
X55318Y-46988D02*
X55318Y-47788D01*
X55318Y-45888D02*
X55318Y-46688D01*
X54818Y-45888D02*
X55818Y-45888D01*
X55945Y-46850D02*
G75*
G03X55945Y-46850I-630J0D01*
G74*
G01*
X53543Y-45374D02*
X53543Y-48326D01*
X53543Y-48326D02*
X57086Y-48326D01*
X57086Y-48326D02*
X57086Y-45374D01*
X57086Y-45374D02*
X53543Y-45374D01*
X72440Y-46688D02*
X72340Y-46688D01*
X72340Y-46688D02*
X72340Y-46988D01*
X72340Y-46988D02*
X72440Y-46988D01*
X72440Y-46588D02*
X72440Y-47088D01*
X72140Y-47788D02*
X73140Y-47788D01*
X72640Y-46988D02*
X72640Y-47788D01*
X72640Y-45888D02*
X72640Y-46688D01*
X72140Y-45888D02*
X73140Y-45888D01*
X73268Y-46850D02*
G75*
G03X73268Y-46850I-630J0D01*
G74*
G01*
X70866Y-45374D02*
X70866Y-48326D01*
X70866Y-48326D02*
X74409Y-48326D01*
X74409Y-48326D02*
X74409Y-45374D01*
X74409Y-45374D02*
X70866Y-45374D01*
X89763Y-46688D02*
X89663Y-46688D01*
X89663Y-46688D02*
X89663Y-46988D01*
X89663Y-46988D02*
X89763Y-46988D01*
X89763Y-46588D02*
X89763Y-47088D01*
X89463Y-47788D02*
X90463Y-47788D01*
X89963Y-46988D02*
X89963Y-47788D01*
X89963Y-45888D02*
X89963Y-46688D01*
X89463Y-45888D02*
X90463Y-45888D01*
X90590Y-46850D02*
G75*
G03X90590Y-46850I-630J0D01*
G74*
G01*
X88188Y-45374D02*
X88188Y-48326D01*
X88188Y-48326D02*
X91732Y-48326D01*
X91732Y-48326D02*
X91732Y-45374D01*
X91732Y-45374D02*
X88188Y-45374D01*
X63779Y-46688D02*
X63679Y-46688D01*
X63679Y-46688D02*
X63679Y-46988D01*
X63679Y-46988D02*
X63779Y-46988D01*
X63779Y-46588D02*
X63779Y-47088D01*
X63479Y-47788D02*
X64479Y-47788D01*
X63979Y-46988D02*
X63979Y-47788D01*
X63979Y-45888D02*
X63979Y-46688D01*
X63479Y-45888D02*
X64479Y-45888D01*
X64606Y-46850D02*
G75*
G03X64606Y-46850I-630J0D01*
G74*
G01*
X62204Y-45374D02*
X62204Y-48326D01*
X62204Y-48326D02*
X65748Y-48326D01*
X65748Y-48326D02*
X65748Y-45374D01*
X65748Y-45374D02*
X62204Y-45374D01*
X85433Y-46688D02*
X85333Y-46688D01*
X85333Y-46688D02*
X85333Y-46988D01*
X85333Y-46988D02*
X85433Y-46988D01*
X85433Y-46588D02*
X85433Y-47088D01*
X85133Y-47788D02*
X86133Y-47788D01*
X85633Y-46988D02*
X85633Y-47788D01*
X85633Y-45888D02*
X85633Y-46688D01*
X85133Y-45888D02*
X86133Y-45888D01*
X86260Y-46850D02*
G75*
G03X86260Y-46850I-630J0D01*
G74*
G01*
X83858Y-45374D02*
X83858Y-48326D01*
X83858Y-48326D02*
X87401Y-48326D01*
X87401Y-48326D02*
X87401Y-45374D01*
X87401Y-45374D02*
X83858Y-45374D01*
X59448Y-46688D02*
X59348Y-46688D01*
X59348Y-46688D02*
X59348Y-46988D01*
X59348Y-46988D02*
X59448Y-46988D01*
X59448Y-46588D02*
X59448Y-47088D01*
X59148Y-47788D02*
X60148Y-47788D01*
X59648Y-46988D02*
X59648Y-47788D01*
X59648Y-45888D02*
X59648Y-46688D01*
X59148Y-45888D02*
X60148Y-45888D01*
X60275Y-46850D02*
G75*
G03X60275Y-46850I-630J0D01*
G74*
G01*
X57874Y-45374D02*
X57874Y-48326D01*
X57874Y-48326D02*
X61417Y-48326D01*
X61417Y-48326D02*
X61417Y-45374D01*
X61417Y-45374D02*
X57874Y-45374D01*
X76771Y-46688D02*
X76671Y-46688D01*
X76671Y-46688D02*
X76671Y-46988D01*
X76671Y-46988D02*
X76771Y-46988D01*
X76771Y-46588D02*
X76771Y-47088D01*
X76471Y-47788D02*
X77471Y-47788D01*
X76971Y-46988D02*
X76971Y-47788D01*
X76971Y-45888D02*
X76971Y-46688D01*
X76471Y-45888D02*
X77471Y-45888D01*
X77598Y-46850D02*
G75*
G03X77598Y-46850I-630J0D01*
G74*
G01*
X75196Y-45374D02*
X75196Y-48326D01*
X75196Y-48326D02*
X78740Y-48326D01*
X78740Y-48326D02*
X78740Y-45374D01*
X78740Y-45374D02*
X75196Y-45374D01*
X94094Y-46688D02*
X93994Y-46688D01*
X93994Y-46688D02*
X93994Y-46988D01*
X93994Y-46988D02*
X94094Y-46988D01*
X94094Y-46588D02*
X94094Y-47088D01*
X93794Y-47788D02*
X94794Y-47788D01*
X94294Y-46988D02*
X94294Y-47788D01*
X94294Y-45888D02*
X94294Y-46688D01*
X93794Y-45888D02*
X94794Y-45888D01*
X94921Y-46850D02*
G75*
G03X94921Y-46850I-630J0D01*
G74*
G01*
X92519Y-45374D02*
X92519Y-48326D01*
X92519Y-48326D02*
X96062Y-48326D01*
X96062Y-48326D02*
X96062Y-45374D01*
X96062Y-45374D02*
X92519Y-45374D01*
X81102Y-46688D02*
X81002Y-46688D01*
X81002Y-46688D02*
X81002Y-46988D01*
X81002Y-46988D02*
X81102Y-46988D01*
X81102Y-46588D02*
X81102Y-47088D01*
X80802Y-47788D02*
X81802Y-47788D01*
X81302Y-46988D02*
X81302Y-47788D01*
X81302Y-45888D02*
X81302Y-46688D01*
X80802Y-45888D02*
X81802Y-45888D01*
X81929Y-46850D02*
G75*
G03X81929Y-46850I-630J0D01*
G74*
G01*
X79527Y-45374D02*
X79527Y-48326D01*
X79527Y-48326D02*
X83070Y-48326D01*
X83070Y-48326D02*
X83070Y-45374D01*
X83070Y-45374D02*
X79527Y-45374D01*
X107086Y-46688D02*
X106986Y-46688D01*
X106986Y-46688D02*
X106986Y-46988D01*
X106986Y-46988D02*
X107086Y-46988D01*
X107086Y-46588D02*
X107086Y-47088D01*
X106786Y-47788D02*
X107786Y-47788D01*
X107286Y-46988D02*
X107286Y-47788D01*
X107286Y-45888D02*
X107286Y-46688D01*
X106786Y-45888D02*
X107786Y-45888D01*
X107913Y-46850D02*
G75*
G03X107913Y-46850I-630J0D01*
G74*
G01*
X105511Y-45374D02*
X105511Y-48326D01*
X105511Y-48326D02*
X109055Y-48326D01*
X109055Y-48326D02*
X109055Y-45374D01*
X109055Y-45374D02*
X105511Y-45374D01*
X50787Y-46688D02*
X50687Y-46688D01*
X50687Y-46688D02*
X50687Y-46988D01*
X50687Y-46988D02*
X50787Y-46988D01*
X50787Y-46588D02*
X50787Y-47088D01*
X50487Y-47788D02*
X51487Y-47788D01*
X50987Y-46988D02*
X50987Y-47788D01*
X50987Y-45888D02*
X50987Y-46688D01*
X50487Y-45888D02*
X51487Y-45888D01*
X51614Y-46850D02*
G75*
G03X51614Y-46850I-630J0D01*
G74*
G01*
X49212Y-45374D02*
X49212Y-48326D01*
X49212Y-48326D02*
X52755Y-48326D01*
X52755Y-48326D02*
X52755Y-45374D01*
X52755Y-45374D02*
X49212Y-45374D01*
X102755Y-46688D02*
X102655Y-46688D01*
X102655Y-46688D02*
X102655Y-46988D01*
X102655Y-46988D02*
X102755Y-46988D01*
X102755Y-46588D02*
X102755Y-47088D01*
X102455Y-47788D02*
X103455Y-47788D01*
X102955Y-46988D02*
X102955Y-47788D01*
X102955Y-45888D02*
X102955Y-46688D01*
X102455Y-45888D02*
X103455Y-45888D01*
X103582Y-46850D02*
G75*
G03X103582Y-46850I-630J0D01*
G74*
G01*
X101181Y-45374D02*
X101181Y-48326D01*
X101181Y-48326D02*
X104724Y-48326D01*
X104724Y-48326D02*
X104724Y-45374D01*
X104724Y-45374D02*
X101181Y-45374D01*
X98425Y-46688D02*
X98325Y-46688D01*
X98325Y-46688D02*
X98325Y-46988D01*
X98325Y-46988D02*
X98425Y-46988D01*
X98425Y-46588D02*
X98425Y-47088D01*
X98125Y-47788D02*
X99125Y-47788D01*
X98625Y-46988D02*
X98625Y-47788D01*
X98625Y-45888D02*
X98625Y-46688D01*
X98125Y-45888D02*
X99125Y-45888D01*
X99252Y-46850D02*
G75*
G03X99252Y-46850I-630J0D01*
G74*
G01*
X96850Y-45374D02*
X96850Y-48326D01*
X96850Y-48326D02*
X100393Y-48326D01*
X100393Y-48326D02*
X100393Y-45374D01*
X100393Y-45374D02*
X96850Y-45374D01*
X46456Y-46688D02*
X46356Y-46688D01*
X46356Y-46688D02*
X46356Y-46988D01*
X46356Y-46988D02*
X46456Y-46988D01*
X46456Y-46588D02*
X46456Y-47088D01*
X46156Y-47788D02*
X47156Y-47788D01*
X46656Y-46988D02*
X46656Y-47788D01*
X46656Y-45888D02*
X46656Y-46688D01*
X46156Y-45888D02*
X47156Y-45888D01*
X47283Y-46850D02*
G75*
G03X47283Y-46850I-630J0D01*
G74*
G01*
X44881Y-45374D02*
X44881Y-48326D01*
X44881Y-48326D02*
X48425Y-48326D01*
X48425Y-48326D02*
X48425Y-45374D01*
X48425Y-45374D02*
X44881Y-45374D01*
X111417Y-46688D02*
X111317Y-46688D01*
X111317Y-46688D02*
X111317Y-46988D01*
X111317Y-46988D02*
X111417Y-46988D01*
X111417Y-46588D02*
X111417Y-47088D01*
X111117Y-47788D02*
X112117Y-47788D01*
X111617Y-46988D02*
X111617Y-47788D01*
X111617Y-45888D02*
X111617Y-46688D01*
X111117Y-45888D02*
X112117Y-45888D01*
X112244Y-46850D02*
G75*
G03X112244Y-46850I-630J0D01*
G74*
G01*
X109842Y-45374D02*
X109842Y-48326D01*
X109842Y-48326D02*
X113385Y-48326D01*
X113385Y-48326D02*
X113385Y-45374D01*
X113385Y-45374D02*
X109842Y-45374D01*
G54D13*
X102338Y-60334D02*
X102538Y-60334D01*
X105338Y-60334D02*
X105138Y-60334D01*
X105138Y-60334D02*
X105138Y-59934D01*
X105138Y-59934D02*
X102538Y-59934D01*
X102538Y-59934D02*
X102538Y-60734D01*
X102538Y-60734D02*
X105138Y-60734D01*
X105138Y-60734D02*
X105138Y-60334D01*
X102538Y-60134D02*
X102738Y-59934D01*
G54D14*
X110236Y-43807D02*
X110236Y-42807D01*
X110795Y-43807D02*
G75*
G03X110795Y-43807I-559J0D01*
G74*
G01*
X84251Y-43807D02*
X84251Y-42807D01*
X84810Y-43807D02*
G75*
G03X84810Y-43807I-559J0D01*
G74*
G01*
X66929Y-43807D02*
X66929Y-42807D01*
X67488Y-43807D02*
G75*
G03X67488Y-43807I-559J0D01*
G74*
G01*
X105905Y-43807D02*
X105905Y-42807D01*
X106464Y-43807D02*
G75*
G03X106464Y-43807I-559J0D01*
G74*
G01*
X71259Y-43807D02*
X71259Y-42807D01*
X71818Y-43807D02*
G75*
G03X71818Y-43807I-559J0D01*
G74*
G01*
X92913Y-43807D02*
X92913Y-42807D01*
X93472Y-43807D02*
G75*
G03X93472Y-43807I-559J0D01*
G74*
G01*
X102255Y-56988D02*
X103255Y-56988D01*
X102814Y-56988D02*
G75*
G03X102814Y-56988I-559J0D01*
G74*
G01*
X75590Y-43807D02*
X75590Y-42807D01*
X76149Y-43807D02*
G75*
G03X76149Y-43807I-559J0D01*
G74*
G01*
X102263Y-58358D02*
X102263Y-59358D01*
X102822Y-58358D02*
G75*
G03X102822Y-58358I-559J0D01*
G74*
G01*
X79921Y-43807D02*
X79921Y-42807D01*
X80480Y-43807D02*
G75*
G03X80480Y-43807I-559J0D01*
G74*
G01*
X103346Y-59161D02*
X103346Y-58161D01*
X103905Y-59161D02*
G75*
G03X103905Y-59161I-559J0D01*
G74*
G01*
X88582Y-43807D02*
X88582Y-42807D01*
X89141Y-43807D02*
G75*
G03X89141Y-43807I-559J0D01*
G74*
G01*
X49606Y-43807D02*
X49606Y-42807D01*
X50165Y-43807D02*
G75*
G03X50165Y-43807I-559J0D01*
G74*
G01*
X45275Y-43807D02*
X45275Y-42807D01*
X45834Y-43807D02*
G75*
G03X45834Y-43807I-559J0D01*
G74*
G01*
X53937Y-43807D02*
X53937Y-42807D01*
X54496Y-43807D02*
G75*
G03X54496Y-43807I-559J0D01*
G74*
G01*
X101574Y-43807D02*
X101574Y-42807D01*
X102133Y-43807D02*
G75*
G03X102133Y-43807I-559J0D01*
G74*
G01*
X58267Y-43807D02*
X58267Y-42807D01*
X58826Y-43807D02*
G75*
G03X58826Y-43807I-559J0D01*
G74*
G01*
X97244Y-43807D02*
X97244Y-42807D01*
X97803Y-43807D02*
G75*
G03X97803Y-43807I-559J0D01*
G74*
G01*
X62598Y-43807D02*
X62598Y-42807D01*
X63157Y-43807D02*
G75*
G03X63157Y-43807I-559J0D01*
G74*
G01*
G54D15*
X111007Y-57094D02*
X111007Y-56094D01*
X111007Y-56094D02*
X113007Y-56094D01*
X113007Y-56094D02*
X113007Y-57094D01*
X113007Y-57094D02*
X111007Y-57094D01*
G54D13*
X87340Y-44057D02*
X87340Y-42557D01*
G54D16*
X87027Y-43307D02*
G75*
G03X87027Y-43307I-707J0D01*
G74*
G01*
G54D17*
X87320Y-42556D02*
G75*
G03X87320Y-44057I-999J-750D01*
G74*
G01*
G54D15*
X86320Y-42857D02*
G75*
G03X85870Y-43307I0J-450D01*
G74*
G01*
X86320Y-43757D02*
G75*
G03X86770Y-43307I0J450D01*
G74*
G01*
X86320Y-42657D02*
G75*
G03X85670Y-43307I0J-650D01*
G74*
G01*
X86320Y-43957D02*
G75*
G03X86970Y-43307I0J650D01*
G74*
G01*
X86320Y-42457D02*
G75*
G03X85470Y-43307I0J-850D01*
G74*
G01*
X86320Y-44157D02*
G75*
G03X87170Y-43307I0J850D01*
G74*
G01*
G54D13*
X108994Y-44057D02*
X108994Y-42557D01*
G54D16*
X108681Y-43307D02*
G75*
G03X108681Y-43307I-707J0D01*
G74*
G01*
G54D17*
X108973Y-42556D02*
G75*
G03X108973Y-44057I-999J-750D01*
G74*
G01*
G54D15*
X107974Y-42857D02*
G75*
G03X107524Y-43307I0J-450D01*
G74*
G01*
X107974Y-43757D02*
G75*
G03X108424Y-43307I0J450D01*
G74*
G01*
X107974Y-42657D02*
G75*
G03X107324Y-43307I0J-650D01*
G74*
G01*
X107974Y-43957D02*
G75*
G03X108624Y-43307I0J650D01*
G74*
G01*
X107974Y-42457D02*
G75*
G03X107124Y-43307I0J-850D01*
G74*
G01*
X107974Y-44157D02*
G75*
G03X108824Y-43307I0J850D01*
G74*
G01*
G54D13*
X113324Y-44057D02*
X113324Y-42557D01*
G54D16*
X113011Y-43307D02*
G75*
G03X113011Y-43307I-707J0D01*
G74*
G01*
G54D17*
X113304Y-42556D02*
G75*
G03X113304Y-44057I-999J-750D01*
G74*
G01*
G54D15*
X112304Y-42857D02*
G75*
G03X111854Y-43307I0J-450D01*
G74*
G01*
X112304Y-43757D02*
G75*
G03X112754Y-43307I0J450D01*
G74*
G01*
X112304Y-42657D02*
G75*
G03X111654Y-43307I0J-650D01*
G74*
G01*
X112304Y-43957D02*
G75*
G03X112954Y-43307I0J650D01*
G74*
G01*
X112304Y-42457D02*
G75*
G03X111454Y-43307I0J-850D01*
G74*
G01*
X112304Y-44157D02*
G75*
G03X113154Y-43307I0J850D01*
G74*
G01*
G54D13*
X100332Y-44057D02*
X100332Y-42557D01*
G54D16*
X100019Y-43307D02*
G75*
G03X100019Y-43307I-707J0D01*
G74*
G01*
G54D17*
X100312Y-42556D02*
G75*
G03X100312Y-44057I-999J-750D01*
G74*
G01*
G54D15*
X99312Y-42857D02*
G75*
G03X98862Y-43307I0J-450D01*
G74*
G01*
X99312Y-43757D02*
G75*
G03X99762Y-43307I0J450D01*
G74*
G01*
X99312Y-42657D02*
G75*
G03X98662Y-43307I0J-650D01*
G74*
G01*
X99312Y-43957D02*
G75*
G03X99962Y-43307I0J650D01*
G74*
G01*
X99312Y-42457D02*
G75*
G03X98462Y-43307I0J-850D01*
G74*
G01*
X99312Y-44157D02*
G75*
G03X100162Y-43307I0J850D01*
G74*
G01*
G54D13*
X91671Y-44450D02*
X91671Y-42950D01*
G54D16*
X91358Y-43700D02*
G75*
G03X91358Y-43700I-707J0D01*
G74*
G01*
G54D17*
X91650Y-42950D02*
G75*
G03X91650Y-44451I-999J-750D01*
G74*
G01*
G54D15*
X90651Y-43250D02*
G75*
G03X90201Y-43700I0J-450D01*
G74*
G01*
X90651Y-44150D02*
G75*
G03X91101Y-43700I0J450D01*
G74*
G01*
X90651Y-43050D02*
G75*
G03X90001Y-43700I0J-650D01*
G74*
G01*
X90651Y-44350D02*
G75*
G03X91301Y-43700I0J650D01*
G74*
G01*
X90651Y-42850D02*
G75*
G03X89801Y-43700I0J-850D01*
G74*
G01*
X90651Y-44550D02*
G75*
G03X91501Y-43700I0J850D01*
G74*
G01*
G54D13*
X78679Y-44057D02*
X78679Y-42557D01*
G54D16*
X78366Y-43307D02*
G75*
G03X78366Y-43307I-707J0D01*
G74*
G01*
G54D17*
X78658Y-42556D02*
G75*
G03X78658Y-44057I-999J-750D01*
G74*
G01*
G54D15*
X77659Y-42857D02*
G75*
G03X77209Y-43307I0J-450D01*
G74*
G01*
X77659Y-43757D02*
G75*
G03X78109Y-43307I0J450D01*
G74*
G01*
X77659Y-42657D02*
G75*
G03X77009Y-43307I0J-650D01*
G74*
G01*
X77659Y-43957D02*
G75*
G03X78309Y-43307I0J650D01*
G74*
G01*
X77659Y-42457D02*
G75*
G03X76809Y-43307I0J-850D01*
G74*
G01*
X77659Y-44157D02*
G75*
G03X78509Y-43307I0J850D01*
G74*
G01*
G54D13*
X96001Y-44057D02*
X96001Y-42557D01*
G54D16*
X95688Y-43307D02*
G75*
G03X95688Y-43307I-707J0D01*
G74*
G01*
G54D17*
X95981Y-42556D02*
G75*
G03X95981Y-44057I-999J-750D01*
G74*
G01*
G54D15*
X94981Y-42857D02*
G75*
G03X94531Y-43307I0J-450D01*
G74*
G01*
X94981Y-43757D02*
G75*
G03X95431Y-43307I0J450D01*
G74*
G01*
X94981Y-42657D02*
G75*
G03X94331Y-43307I0J-650D01*
G74*
G01*
X94981Y-43957D02*
G75*
G03X95631Y-43307I0J650D01*
G74*
G01*
X94981Y-42457D02*
G75*
G03X94131Y-43307I0J-850D01*
G74*
G01*
X94981Y-44157D02*
G75*
G03X95831Y-43307I0J850D01*
G74*
G01*
G54D13*
X104663Y-44057D02*
X104663Y-42557D01*
G54D16*
X104350Y-43307D02*
G75*
G03X104350Y-43307I-707J0D01*
G74*
G01*
G54D17*
X104642Y-42556D02*
G75*
G03X104642Y-44057I-999J-750D01*
G74*
G01*
G54D15*
X103643Y-42857D02*
G75*
G03X103193Y-43307I0J-450D01*
G74*
G01*
X103643Y-43757D02*
G75*
G03X104093Y-43307I0J450D01*
G74*
G01*
X103643Y-42657D02*
G75*
G03X102993Y-43307I0J-650D01*
G74*
G01*
X103643Y-43957D02*
G75*
G03X104293Y-43307I0J650D01*
G74*
G01*
X103643Y-42457D02*
G75*
G03X102793Y-43307I0J-850D01*
G74*
G01*
X103643Y-44157D02*
G75*
G03X104493Y-43307I0J850D01*
G74*
G01*
G54D13*
X83009Y-44057D02*
X83009Y-42557D01*
G54D16*
X82696Y-43307D02*
G75*
G03X82696Y-43307I-707J0D01*
G74*
G01*
G54D17*
X82989Y-42556D02*
G75*
G03X82989Y-44057I-999J-750D01*
G74*
G01*
G54D15*
X81989Y-42857D02*
G75*
G03X81539Y-43307I0J-450D01*
G74*
G01*
X81989Y-43757D02*
G75*
G03X82439Y-43307I0J450D01*
G74*
G01*
X81989Y-42657D02*
G75*
G03X81339Y-43307I0J-650D01*
G74*
G01*
X81989Y-43957D02*
G75*
G03X82639Y-43307I0J650D01*
G74*
G01*
X81989Y-42457D02*
G75*
G03X81139Y-43307I0J-850D01*
G74*
G01*
X81989Y-44157D02*
G75*
G03X82839Y-43307I0J850D01*
G74*
G01*
G54D13*
X48364Y-44057D02*
X48364Y-42557D01*
G54D16*
X48051Y-43307D02*
G75*
G03X48051Y-43307I-707J0D01*
G74*
G01*
G54D17*
X48343Y-42556D02*
G75*
G03X48343Y-44057I-999J-750D01*
G74*
G01*
G54D15*
X47344Y-42857D02*
G75*
G03X46894Y-43307I0J-450D01*
G74*
G01*
X47344Y-43757D02*
G75*
G03X47794Y-43307I0J450D01*
G74*
G01*
X47344Y-42657D02*
G75*
G03X46694Y-43307I0J-650D01*
G74*
G01*
X47344Y-43957D02*
G75*
G03X47994Y-43307I0J650D01*
G74*
G01*
X47344Y-42457D02*
G75*
G03X46494Y-43307I0J-850D01*
G74*
G01*
X47344Y-44157D02*
G75*
G03X48194Y-43307I0J850D01*
G74*
G01*
G54D13*
X74348Y-44057D02*
X74348Y-42557D01*
G54D16*
X74035Y-43307D02*
G75*
G03X74035Y-43307I-707J0D01*
G74*
G01*
G54D17*
X74327Y-42556D02*
G75*
G03X74327Y-44057I-999J-750D01*
G74*
G01*
G54D15*
X73328Y-42857D02*
G75*
G03X72878Y-43307I0J-450D01*
G74*
G01*
X73328Y-43757D02*
G75*
G03X73778Y-43307I0J450D01*
G74*
G01*
X73328Y-42657D02*
G75*
G03X72678Y-43307I0J-650D01*
G74*
G01*
X73328Y-43957D02*
G75*
G03X73978Y-43307I0J650D01*
G74*
G01*
X73328Y-42457D02*
G75*
G03X72478Y-43307I0J-850D01*
G74*
G01*
X73328Y-44157D02*
G75*
G03X74178Y-43307I0J850D01*
G74*
G01*
G54D13*
X52694Y-44057D02*
X52694Y-42557D01*
G54D16*
X52381Y-43307D02*
G75*
G03X52381Y-43307I-707J0D01*
G74*
G01*
G54D17*
X52674Y-42556D02*
G75*
G03X52674Y-44057I-999J-750D01*
G74*
G01*
G54D15*
X51674Y-42857D02*
G75*
G03X51224Y-43307I0J-450D01*
G74*
G01*
X51674Y-43757D02*
G75*
G03X52124Y-43307I0J450D01*
G74*
G01*
X51674Y-42657D02*
G75*
G03X51024Y-43307I0J-650D01*
G74*
G01*
X51674Y-43957D02*
G75*
G03X52324Y-43307I0J650D01*
G74*
G01*
X51674Y-42457D02*
G75*
G03X50824Y-43307I0J-850D01*
G74*
G01*
X51674Y-44157D02*
G75*
G03X52524Y-43307I0J850D01*
G74*
G01*
G54D13*
X70017Y-44057D02*
X70017Y-42557D01*
G54D16*
X69704Y-43307D02*
G75*
G03X69704Y-43307I-707J0D01*
G74*
G01*
G54D17*
X69997Y-42556D02*
G75*
G03X69997Y-44057I-999J-750D01*
G74*
G01*
G54D15*
X68997Y-42857D02*
G75*
G03X68547Y-43307I0J-450D01*
G74*
G01*
X68997Y-43757D02*
G75*
G03X69447Y-43307I0J450D01*
G74*
G01*
X68997Y-42657D02*
G75*
G03X68347Y-43307I0J-650D01*
G74*
G01*
X68997Y-43957D02*
G75*
G03X69647Y-43307I0J650D01*
G74*
G01*
X68997Y-42457D02*
G75*
G03X68147Y-43307I0J-850D01*
G74*
G01*
X68997Y-44157D02*
G75*
G03X69847Y-43307I0J850D01*
G74*
G01*
G54D13*
X57025Y-44057D02*
X57025Y-42557D01*
G54D16*
X56712Y-43307D02*
G75*
G03X56712Y-43307I-707J0D01*
G74*
G01*
G54D17*
X57005Y-42556D02*
G75*
G03X57005Y-44057I-999J-750D01*
G74*
G01*
G54D15*
X56005Y-42857D02*
G75*
G03X55555Y-43307I0J-450D01*
G74*
G01*
X56005Y-43757D02*
G75*
G03X56455Y-43307I0J450D01*
G74*
G01*
X56005Y-42657D02*
G75*
G03X55355Y-43307I0J-650D01*
G74*
G01*
X56005Y-43957D02*
G75*
G03X56655Y-43307I0J650D01*
G74*
G01*
X56005Y-42457D02*
G75*
G03X55155Y-43307I0J-850D01*
G74*
G01*
X56005Y-44157D02*
G75*
G03X56855Y-43307I0J850D01*
G74*
G01*
G54D13*
X61356Y-44057D02*
X61356Y-42557D01*
G54D16*
X61043Y-43307D02*
G75*
G03X61043Y-43307I-707J0D01*
G74*
G01*
G54D17*
X61335Y-42556D02*
G75*
G03X61335Y-44057I-999J-750D01*
G74*
G01*
G54D15*
X60336Y-42857D02*
G75*
G03X59886Y-43307I0J-450D01*
G74*
G01*
X60336Y-43757D02*
G75*
G03X60786Y-43307I0J450D01*
G74*
G01*
X60336Y-42657D02*
G75*
G03X59686Y-43307I0J-650D01*
G74*
G01*
X60336Y-43957D02*
G75*
G03X60986Y-43307I0J650D01*
G74*
G01*
X60336Y-42457D02*
G75*
G03X59486Y-43307I0J-850D01*
G74*
G01*
X60336Y-44157D02*
G75*
G03X61186Y-43307I0J850D01*
G74*
G01*
G54D13*
X65686Y-44057D02*
X65686Y-42557D01*
G54D16*
X65374Y-43307D02*
G75*
G03X65374Y-43307I-707J0D01*
G74*
G01*
G54D17*
X65666Y-42556D02*
G75*
G03X65666Y-44057I-999J-750D01*
G74*
G01*
G54D15*
X64666Y-42857D02*
G75*
G03X64216Y-43307I0J-450D01*
G74*
G01*
X64666Y-43757D02*
G75*
G03X65116Y-43307I0J450D01*
G74*
G01*
X64666Y-42657D02*
G75*
G03X64016Y-43307I0J-650D01*
G74*
G01*
X64666Y-43957D02*
G75*
G03X65316Y-43307I0J650D01*
G74*
G01*
X64666Y-42457D02*
G75*
G03X63816Y-43307I0J-850D01*
G74*
G01*
X64666Y-44157D02*
G75*
G03X65516Y-43307I0J850D01*
G74*
G01*
G54D14*
X71877Y-53437D02*
X71877Y-53437D01*
X71877Y-53437D02*
X72377Y-53437D01*
X72377Y-53437D02*
X72377Y-54437D01*
X72377Y-54437D02*
X71877Y-54437D01*
X71877Y-52937D02*
X80877Y-52937D01*
X80877Y-52937D02*
X80877Y-54937D01*
X80877Y-54937D02*
X71877Y-54937D01*
X71877Y-54937D02*
X71877Y-52937D01*
X58492Y-53437D02*
X58492Y-53437D01*
X58492Y-53437D02*
X58992Y-53437D01*
X58992Y-53437D02*
X58992Y-54437D01*
X58992Y-54437D02*
X58492Y-54437D01*
X58492Y-52937D02*
X67492Y-52937D01*
X67492Y-52937D02*
X67492Y-54937D01*
X67492Y-54937D02*
X58492Y-54937D01*
X58492Y-54937D02*
X58492Y-52937D01*
G54D18*
X86933Y-38188D02*
X86633Y-38188D01*
X86633Y-38188D02*
X86633Y-37788D01*
X86633Y-37788D02*
X84233Y-37788D01*
X84233Y-37788D02*
X84233Y-38188D01*
X84233Y-38188D02*
X83933Y-38188D01*
X84233Y-38188D02*
X84233Y-38588D01*
X84233Y-38588D02*
X86633Y-38588D01*
X86633Y-38588D02*
X86633Y-38188D01*
X86433Y-37788D02*
X86433Y-38588D01*
X86333Y-38588D02*
X86333Y-37788D01*
X82602Y-38188D02*
X82302Y-38188D01*
X82302Y-38188D02*
X82302Y-37788D01*
X82302Y-37788D02*
X79902Y-37788D01*
X79902Y-37788D02*
X79902Y-38188D01*
X79902Y-38188D02*
X79602Y-38188D01*
X79902Y-38188D02*
X79902Y-38588D01*
X79902Y-38588D02*
X82302Y-38588D01*
X82302Y-38588D02*
X82302Y-38188D01*
X82102Y-37788D02*
X82102Y-38588D01*
X82002Y-38588D02*
X82002Y-37788D01*
X78271Y-38188D02*
X77971Y-38188D01*
X77971Y-38188D02*
X77971Y-37788D01*
X77971Y-37788D02*
X75571Y-37788D01*
X75571Y-37788D02*
X75571Y-38188D01*
X75571Y-38188D02*
X75271Y-38188D01*
X75571Y-38188D02*
X75571Y-38588D01*
X75571Y-38588D02*
X77971Y-38588D01*
X77971Y-38588D02*
X77971Y-38188D01*
X77771Y-37788D02*
X77771Y-38588D01*
X77671Y-38588D02*
X77671Y-37788D01*
X108586Y-38188D02*
X108286Y-38188D01*
X108286Y-38188D02*
X108286Y-37788D01*
X108286Y-37788D02*
X105886Y-37788D01*
X105886Y-37788D02*
X105886Y-38188D01*
X105886Y-38188D02*
X105586Y-38188D01*
X105886Y-38188D02*
X105886Y-38588D01*
X105886Y-38588D02*
X108286Y-38588D01*
X108286Y-38588D02*
X108286Y-38188D01*
X108086Y-37788D02*
X108086Y-38588D01*
X107986Y-38588D02*
X107986Y-37788D01*
X111909Y-52240D02*
X111909Y-52540D01*
X111909Y-52540D02*
X111509Y-52540D01*
X111509Y-52540D02*
X111509Y-54940D01*
X111509Y-54940D02*
X111909Y-54940D01*
X111909Y-54940D02*
X111909Y-55240D01*
X111909Y-54940D02*
X112309Y-54940D01*
X112309Y-54940D02*
X112309Y-52540D01*
X112309Y-52540D02*
X111909Y-52540D01*
X111509Y-52740D02*
X112309Y-52740D01*
X112309Y-52840D02*
X111509Y-52840D01*
X104255Y-38188D02*
X103955Y-38188D01*
X103955Y-38188D02*
X103955Y-37788D01*
X103955Y-37788D02*
X101555Y-37788D01*
X101555Y-37788D02*
X101555Y-38188D01*
X101555Y-38188D02*
X101255Y-38188D01*
X101555Y-38188D02*
X101555Y-38588D01*
X101555Y-38588D02*
X103955Y-38588D01*
X103955Y-38588D02*
X103955Y-38188D01*
X103755Y-37788D02*
X103755Y-38588D01*
X103655Y-38588D02*
X103655Y-37788D01*
X112917Y-38188D02*
X112617Y-38188D01*
X112617Y-38188D02*
X112617Y-37788D01*
X112617Y-37788D02*
X110217Y-37788D01*
X110217Y-37788D02*
X110217Y-38188D01*
X110217Y-38188D02*
X109917Y-38188D01*
X110217Y-38188D02*
X110217Y-38588D01*
X110217Y-38588D02*
X112617Y-38588D01*
X112617Y-38588D02*
X112617Y-38188D01*
X112417Y-37788D02*
X112417Y-38588D01*
X112317Y-38588D02*
X112317Y-37788D01*
X65279Y-38188D02*
X64979Y-38188D01*
X64979Y-38188D02*
X64979Y-37788D01*
X64979Y-37788D02*
X62579Y-37788D01*
X62579Y-37788D02*
X62579Y-38188D01*
X62579Y-38188D02*
X62279Y-38188D01*
X62579Y-38188D02*
X62579Y-38588D01*
X62579Y-38588D02*
X64979Y-38588D01*
X64979Y-38588D02*
X64979Y-38188D01*
X64779Y-37788D02*
X64779Y-38588D01*
X64679Y-38588D02*
X64679Y-37788D01*
X47956Y-38188D02*
X47656Y-38188D01*
X47656Y-38188D02*
X47656Y-37788D01*
X47656Y-37788D02*
X45256Y-37788D01*
X45256Y-37788D02*
X45256Y-38188D01*
X45256Y-38188D02*
X44956Y-38188D01*
X45256Y-38188D02*
X45256Y-38588D01*
X45256Y-38588D02*
X47656Y-38588D01*
X47656Y-38588D02*
X47656Y-38188D01*
X47456Y-37788D02*
X47456Y-38588D01*
X47356Y-38588D02*
X47356Y-37788D01*
X99925Y-38188D02*
X99625Y-38188D01*
X99625Y-38188D02*
X99625Y-37788D01*
X99625Y-37788D02*
X97225Y-37788D01*
X97225Y-37788D02*
X97225Y-38188D01*
X97225Y-38188D02*
X96925Y-38188D01*
X97225Y-38188D02*
X97225Y-38588D01*
X97225Y-38588D02*
X99625Y-38588D01*
X99625Y-38588D02*
X99625Y-38188D01*
X99425Y-37788D02*
X99425Y-38588D01*
X99325Y-38588D02*
X99325Y-37788D01*
X52287Y-38188D02*
X51987Y-38188D01*
X51987Y-38188D02*
X51987Y-37788D01*
X51987Y-37788D02*
X49587Y-37788D01*
X49587Y-37788D02*
X49587Y-38188D01*
X49587Y-38188D02*
X49287Y-38188D01*
X49587Y-38188D02*
X49587Y-38588D01*
X49587Y-38588D02*
X51987Y-38588D01*
X51987Y-38588D02*
X51987Y-38188D01*
X51787Y-37788D02*
X51787Y-38588D01*
X51687Y-38588D02*
X51687Y-37788D01*
X73940Y-38188D02*
X73640Y-38188D01*
X73640Y-38188D02*
X73640Y-37788D01*
X73640Y-37788D02*
X71240Y-37788D01*
X71240Y-37788D02*
X71240Y-38188D01*
X71240Y-38188D02*
X70940Y-38188D01*
X71240Y-38188D02*
X71240Y-38588D01*
X71240Y-38588D02*
X73640Y-38588D01*
X73640Y-38588D02*
X73640Y-38188D01*
X73440Y-37788D02*
X73440Y-38588D01*
X73340Y-38588D02*
X73340Y-37788D01*
X56618Y-38188D02*
X56318Y-38188D01*
X56318Y-38188D02*
X56318Y-37788D01*
X56318Y-37788D02*
X53918Y-37788D01*
X53918Y-37788D02*
X53918Y-38188D01*
X53918Y-38188D02*
X53618Y-38188D01*
X53918Y-38188D02*
X53918Y-38588D01*
X53918Y-38588D02*
X56318Y-38588D01*
X56318Y-38588D02*
X56318Y-38188D01*
X56118Y-37788D02*
X56118Y-38588D01*
X56018Y-38588D02*
X56018Y-37788D01*
X69610Y-38188D02*
X69310Y-38188D01*
X69310Y-38188D02*
X69310Y-37788D01*
X69310Y-37788D02*
X66910Y-37788D01*
X66910Y-37788D02*
X66910Y-38188D01*
X66910Y-38188D02*
X66610Y-38188D01*
X66910Y-38188D02*
X66910Y-38588D01*
X66910Y-38588D02*
X69310Y-38588D01*
X69310Y-38588D02*
X69310Y-38188D01*
X69110Y-37788D02*
X69110Y-38588D01*
X69010Y-38588D02*
X69010Y-37788D01*
X95594Y-38188D02*
X95294Y-38188D01*
X95294Y-38188D02*
X95294Y-37788D01*
X95294Y-37788D02*
X92894Y-37788D01*
X92894Y-37788D02*
X92894Y-38188D01*
X92894Y-38188D02*
X92594Y-38188D01*
X92894Y-38188D02*
X92894Y-38588D01*
X92894Y-38588D02*
X95294Y-38588D01*
X95294Y-38588D02*
X95294Y-38188D01*
X95094Y-37788D02*
X95094Y-38588D01*
X94994Y-38588D02*
X94994Y-37788D01*
X60948Y-38188D02*
X60648Y-38188D01*
X60648Y-38188D02*
X60648Y-37788D01*
X60648Y-37788D02*
X58248Y-37788D01*
X58248Y-37788D02*
X58248Y-38188D01*
X58248Y-38188D02*
X57948Y-38188D01*
X58248Y-38188D02*
X58248Y-38588D01*
X58248Y-38588D02*
X60648Y-38588D01*
X60648Y-38588D02*
X60648Y-38188D01*
X60448Y-37788D02*
X60448Y-38588D01*
X60348Y-38588D02*
X60348Y-37788D01*
X91263Y-38188D02*
X90963Y-38188D01*
X90963Y-38188D02*
X90963Y-37788D01*
X90963Y-37788D02*
X88563Y-37788D01*
X88563Y-37788D02*
X88563Y-38188D01*
X88563Y-38188D02*
X88263Y-38188D01*
X88563Y-38188D02*
X88563Y-38588D01*
X88563Y-38588D02*
X90963Y-38588D01*
X90963Y-38588D02*
X90963Y-38188D01*
X90763Y-37788D02*
X90763Y-38588D01*
X90663Y-38588D02*
X90663Y-37788D01*
G54D13*
X110753Y-52362D02*
G75*
G03X110753Y-52362I-1600J0D01*
G74*
G01*
X117544Y-39173D02*
G75*
G03X117544Y-39173I-1600J0D01*
G74*
G01*
G54D18*
X113578Y-50696D02*
X111598Y-50696D01*
X111598Y-50696D02*
X111598Y-49696D01*
X111598Y-49696D02*
X113598Y-49696D01*
X113598Y-49696D02*
X113598Y-50696D01*
X113598Y-50446D02*
X113348Y-50696D01*
X112987Y-58374D02*
X111007Y-58374D01*
X111007Y-58374D02*
X111007Y-57374D01*
X111007Y-57374D02*
X113007Y-57374D01*
X113007Y-57374D02*
X113007Y-58374D01*
X113007Y-58124D02*
X112757Y-58374D01*
X71354Y-58669D02*
X69374Y-58669D01*
X69374Y-58669D02*
X69374Y-57669D01*
X69374Y-57669D02*
X71374Y-57669D01*
X71374Y-57669D02*
X71374Y-58669D01*
X71374Y-58419D02*
X71124Y-58669D01*
X110035Y-55421D02*
X108055Y-55421D01*
X108055Y-55421D02*
X108055Y-54421D01*
X108055Y-54421D02*
X110055Y-54421D01*
X110055Y-54421D02*
X110055Y-55421D01*
X110055Y-55171D02*
X109805Y-55421D01*
X115444Y-36609D02*
X115444Y-34629D01*
X115444Y-34629D02*
X116444Y-34629D01*
X116444Y-34629D02*
X116444Y-36629D01*
X116444Y-36629D02*
X115444Y-36629D01*
X115694Y-36629D02*
X115444Y-36379D01*
G54D10*
X109055Y-60728D02*
X108858Y-60728D01*
X108858Y-60728D02*
X108858Y-57086D01*
X108858Y-57086D02*
X109055Y-57086D01*
X107283Y-61811D02*
X109055Y-61811D01*
X109055Y-61811D02*
X109055Y-55905D01*
X109055Y-55905D02*
X107283Y-55905D01*
X108287Y-57480D02*
X108405Y-57362D01*
X108405Y-57362D02*
X108287Y-57244D01*
X108169Y-57362D02*
X108405Y-57362D01*
X108169Y-58385D02*
X108287Y-58267D01*
X108287Y-58503D02*
X108169Y-58385D01*
X108169Y-58385D02*
X108444Y-58385D01*
G54D18*
X107291Y-61858D02*
X106291Y-61858D01*
X106291Y-61858D02*
X106291Y-55858D01*
X106291Y-55858D02*
X107291Y-55858D01*
X107291Y-55858D02*
X107291Y-61858D01*
X107291Y-60858D02*
X106291Y-60858D01*
X113417Y-34858D02*
X109417Y-34858D01*
X113417Y-35358D02*
X113417Y-32358D01*
X113417Y-32358D02*
X109417Y-32358D01*
X109417Y-32358D02*
X109417Y-35358D01*
X109417Y-35358D02*
X113417Y-35358D01*
X109086Y-34858D02*
X105086Y-34858D01*
X109086Y-35358D02*
X109086Y-32358D01*
X109086Y-32358D02*
X105086Y-32358D01*
X105086Y-32358D02*
X105086Y-35358D01*
X105086Y-35358D02*
X109086Y-35358D01*
X104755Y-34858D02*
X100755Y-34858D01*
X104755Y-35358D02*
X104755Y-32358D01*
X104755Y-32358D02*
X100755Y-32358D01*
X100755Y-32358D02*
X100755Y-35358D01*
X100755Y-35358D02*
X104755Y-35358D01*
X100425Y-34858D02*
X96425Y-34858D01*
X100425Y-35358D02*
X100425Y-32358D01*
X100425Y-32358D02*
X96425Y-32358D01*
X96425Y-32358D02*
X96425Y-35358D01*
X96425Y-35358D02*
X100425Y-35358D01*
X96094Y-34858D02*
X92094Y-34858D01*
X96094Y-35358D02*
X96094Y-32358D01*
X96094Y-32358D02*
X92094Y-32358D01*
X92094Y-32358D02*
X92094Y-35358D01*
X92094Y-35358D02*
X96094Y-35358D01*
X91763Y-34858D02*
X87763Y-34858D01*
X91763Y-35358D02*
X91763Y-32358D01*
X91763Y-32358D02*
X87763Y-32358D01*
X87763Y-32358D02*
X87763Y-35358D01*
X87763Y-35358D02*
X91763Y-35358D01*
X87433Y-34858D02*
X83433Y-34858D01*
X87433Y-35358D02*
X87433Y-32358D01*
X87433Y-32358D02*
X83433Y-32358D01*
X83433Y-32358D02*
X83433Y-35358D01*
X83433Y-35358D02*
X87433Y-35358D01*
X83102Y-34858D02*
X79102Y-34858D01*
X83102Y-35358D02*
X83102Y-32358D01*
X83102Y-32358D02*
X79102Y-32358D01*
X79102Y-32358D02*
X79102Y-35358D01*
X79102Y-35358D02*
X83102Y-35358D01*
X78771Y-34858D02*
X74771Y-34858D01*
X78771Y-35358D02*
X78771Y-32358D01*
X78771Y-32358D02*
X74771Y-32358D01*
X74771Y-32358D02*
X74771Y-35358D01*
X74771Y-35358D02*
X78771Y-35358D01*
X74440Y-34858D02*
X70440Y-34858D01*
X74440Y-35358D02*
X74440Y-32358D01*
X74440Y-32358D02*
X70440Y-32358D01*
X70440Y-32358D02*
X70440Y-35358D01*
X70440Y-35358D02*
X74440Y-35358D01*
X70110Y-34858D02*
X66110Y-34858D01*
X70110Y-35358D02*
X70110Y-32358D01*
X70110Y-32358D02*
X66110Y-32358D01*
X66110Y-32358D02*
X66110Y-35358D01*
X66110Y-35358D02*
X70110Y-35358D01*
X65779Y-34858D02*
X61779Y-34858D01*
X65779Y-35358D02*
X65779Y-32358D01*
X65779Y-32358D02*
X61779Y-32358D01*
X61779Y-32358D02*
X61779Y-35358D01*
X61779Y-35358D02*
X65779Y-35358D01*
X61448Y-34858D02*
X57448Y-34858D01*
X61448Y-35358D02*
X61448Y-32358D01*
X61448Y-32358D02*
X57448Y-32358D01*
X57448Y-32358D02*
X57448Y-35358D01*
X57448Y-35358D02*
X61448Y-35358D01*
X57118Y-34858D02*
X53118Y-34858D01*
X57118Y-35358D02*
X57118Y-32358D01*
X57118Y-32358D02*
X53118Y-32358D01*
X53118Y-32358D02*
X53118Y-35358D01*
X53118Y-35358D02*
X57118Y-35358D01*
X52787Y-34858D02*
X48787Y-34858D01*
X52787Y-35358D02*
X52787Y-32358D01*
X52787Y-32358D02*
X48787Y-32358D01*
X48787Y-32358D02*
X48787Y-35358D01*
X48787Y-35358D02*
X52787Y-35358D01*
X48456Y-34858D02*
X44456Y-34858D01*
X48456Y-35358D02*
X48456Y-32358D01*
X48456Y-32358D02*
X44456Y-32358D01*
X44456Y-32358D02*
X44456Y-35358D01*
X44456Y-35358D02*
X48456Y-35358D01*
X115141Y-51015D02*
X115141Y-47015D01*
X114641Y-51015D02*
X117641Y-51015D01*
X117641Y-51015D02*
X117641Y-47015D01*
X117641Y-47015D02*
X114641Y-47015D01*
X114641Y-47015D02*
X114641Y-51015D01*
X115141Y-45700D02*
X115141Y-41700D01*
X114641Y-45700D02*
X117641Y-45700D01*
X117641Y-45700D02*
X117641Y-41700D01*
X117641Y-41700D02*
X114641Y-41700D01*
X114641Y-41700D02*
X114641Y-45700D01*
G54D14*
X87763Y-39407D02*
X87763Y-39157D01*
X87763Y-39157D02*
X91763Y-39157D01*
X91763Y-39157D02*
X91763Y-39407D01*
X87763Y-40907D02*
X87763Y-39407D01*
X87763Y-39407D02*
X91763Y-39407D01*
X91763Y-39407D02*
X91763Y-40907D01*
X91763Y-40907D02*
X87763Y-40907D01*
X53118Y-39407D02*
X53118Y-39157D01*
X53118Y-39157D02*
X57118Y-39157D01*
X57118Y-39157D02*
X57118Y-39407D01*
X53118Y-40907D02*
X53118Y-39407D01*
X53118Y-39407D02*
X57118Y-39407D01*
X57118Y-39407D02*
X57118Y-40907D01*
X57118Y-40907D02*
X53118Y-40907D01*
X96425Y-39407D02*
X96425Y-39157D01*
X96425Y-39157D02*
X100425Y-39157D01*
X100425Y-39157D02*
X100425Y-39407D01*
X96425Y-40907D02*
X96425Y-39407D01*
X96425Y-39407D02*
X100425Y-39407D01*
X100425Y-39407D02*
X100425Y-40907D01*
X100425Y-40907D02*
X96425Y-40907D01*
X48787Y-39407D02*
X48787Y-39157D01*
X48787Y-39157D02*
X52787Y-39157D01*
X52787Y-39157D02*
X52787Y-39407D01*
X48787Y-40907D02*
X48787Y-39407D01*
X48787Y-39407D02*
X52787Y-39407D01*
X52787Y-39407D02*
X52787Y-40907D01*
X52787Y-40907D02*
X48787Y-40907D01*
X57448Y-39407D02*
X57448Y-39157D01*
X57448Y-39157D02*
X61448Y-39157D01*
X61448Y-39157D02*
X61448Y-39407D01*
X57448Y-40907D02*
X57448Y-39407D01*
X57448Y-39407D02*
X61448Y-39407D01*
X61448Y-39407D02*
X61448Y-40907D01*
X61448Y-40907D02*
X57448Y-40907D01*
X92094Y-39407D02*
X92094Y-39157D01*
X92094Y-39157D02*
X96094Y-39157D01*
X96094Y-39157D02*
X96094Y-39407D01*
X92094Y-40907D02*
X92094Y-39407D01*
X92094Y-39407D02*
X96094Y-39407D01*
X96094Y-39407D02*
X96094Y-40907D01*
X96094Y-40907D02*
X92094Y-40907D01*
X44456Y-39407D02*
X44456Y-39157D01*
X44456Y-39157D02*
X48456Y-39157D01*
X48456Y-39157D02*
X48456Y-39407D01*
X44456Y-40907D02*
X44456Y-39407D01*
X44456Y-39407D02*
X48456Y-39407D01*
X48456Y-39407D02*
X48456Y-40907D01*
X48456Y-40907D02*
X44456Y-40907D01*
X61779Y-39407D02*
X61779Y-39157D01*
X61779Y-39157D02*
X65779Y-39157D01*
X65779Y-39157D02*
X65779Y-39407D01*
X61779Y-40907D02*
X61779Y-39407D01*
X61779Y-39407D02*
X65779Y-39407D01*
X65779Y-39407D02*
X65779Y-40907D01*
X65779Y-40907D02*
X61779Y-40907D01*
X100755Y-39407D02*
X100755Y-39157D01*
X100755Y-39157D02*
X104755Y-39157D01*
X104755Y-39157D02*
X104755Y-39407D01*
X100755Y-40907D02*
X100755Y-39407D01*
X100755Y-39407D02*
X104755Y-39407D01*
X104755Y-39407D02*
X104755Y-40907D01*
X104755Y-40907D02*
X100755Y-40907D01*
X66110Y-39407D02*
X66110Y-39157D01*
X66110Y-39157D02*
X70110Y-39157D01*
X70110Y-39157D02*
X70110Y-39407D01*
X66110Y-40907D02*
X66110Y-39407D01*
X66110Y-39407D02*
X70110Y-39407D01*
X70110Y-39407D02*
X70110Y-40907D01*
X70110Y-40907D02*
X66110Y-40907D01*
X105086Y-39407D02*
X105086Y-39157D01*
X105086Y-39157D02*
X109086Y-39157D01*
X109086Y-39157D02*
X109086Y-39407D01*
X105086Y-40907D02*
X105086Y-39407D01*
X105086Y-39407D02*
X109086Y-39407D01*
X109086Y-39407D02*
X109086Y-40907D01*
X109086Y-40907D02*
X105086Y-40907D01*
X70440Y-39407D02*
X70440Y-39157D01*
X70440Y-39157D02*
X74440Y-39157D01*
X74440Y-39157D02*
X74440Y-39407D01*
X70440Y-40907D02*
X70440Y-39407D01*
X70440Y-39407D02*
X74440Y-39407D01*
X74440Y-39407D02*
X74440Y-40907D01*
X74440Y-40907D02*
X70440Y-40907D01*
X109417Y-39407D02*
X109417Y-39157D01*
X109417Y-39157D02*
X113417Y-39157D01*
X113417Y-39157D02*
X113417Y-39407D01*
X109417Y-40907D02*
X109417Y-39407D01*
X109417Y-39407D02*
X113417Y-39407D01*
X113417Y-39407D02*
X113417Y-40907D01*
X113417Y-40907D02*
X109417Y-40907D01*
X74771Y-39407D02*
X74771Y-39157D01*
X74771Y-39157D02*
X78771Y-39157D01*
X78771Y-39157D02*
X78771Y-39407D01*
X74771Y-40907D02*
X74771Y-39407D01*
X74771Y-39407D02*
X78771Y-39407D01*
X78771Y-39407D02*
X78771Y-40907D01*
X78771Y-40907D02*
X74771Y-40907D01*
X83433Y-39407D02*
X83433Y-39157D01*
X83433Y-39157D02*
X87433Y-39157D01*
X87433Y-39157D02*
X87433Y-39407D01*
X83433Y-40907D02*
X83433Y-39407D01*
X83433Y-39407D02*
X87433Y-39407D01*
X87433Y-39407D02*
X87433Y-40907D01*
X87433Y-40907D02*
X83433Y-40907D01*
X79102Y-39407D02*
X79102Y-39157D01*
X79102Y-39157D02*
X83102Y-39157D01*
X83102Y-39157D02*
X83102Y-39407D01*
X79102Y-40907D02*
X79102Y-39407D01*
X79102Y-39407D02*
X83102Y-39407D01*
X83102Y-39407D02*
X83102Y-40907D01*
X83102Y-40907D02*
X79102Y-40907D01*
G54D10*
X117814Y-53149D02*
X117421Y-53149D01*
X117814Y-53444D02*
X117421Y-53444D01*
X117814Y-53740D02*
X117421Y-53740D01*
X117814Y-54035D02*
X117421Y-54035D01*
X117814Y-54330D02*
X117421Y-54330D01*
X115944Y-52854D02*
X117814Y-52854D01*
X115944Y-54625D02*
X117814Y-54625D01*
X113877Y-51673D02*
X113877Y-51181D01*
X113877Y-51181D02*
X117814Y-51181D01*
X117814Y-51181D02*
X117814Y-51968D01*
X117814Y-51968D02*
X115944Y-51968D01*
X115944Y-51968D02*
X115944Y-52559D01*
X115944Y-52559D02*
X117814Y-52559D01*
X117814Y-52559D02*
X117814Y-54921D01*
X117814Y-54921D02*
X115944Y-54921D01*
X115944Y-54921D02*
X115944Y-55413D01*
X115944Y-55413D02*
X115944Y-55610D01*
X115944Y-55610D02*
X117814Y-55610D01*
X117814Y-55610D02*
X117814Y-56299D01*
X117814Y-56299D02*
X113877Y-56299D01*
X113877Y-56299D02*
X113877Y-55708D01*
G54D14*
X115415Y-51740D02*
X115665Y-51740D01*
X115665Y-51740D02*
X115665Y-55740D01*
X115665Y-55740D02*
X115415Y-55740D01*
X113915Y-51740D02*
X115415Y-51740D01*
X115415Y-51740D02*
X115415Y-55740D01*
X115415Y-55740D02*
X113915Y-55740D01*
X113915Y-55740D02*
X113915Y-51740D01*
G54D10*
X98383Y-54527D02*
G75*
G03X98383Y-54527I-200J0D01*
G74*
G01*
X97783Y-53527D02*
X97783Y-55527D01*
X97783Y-55527D02*
X98533Y-55527D01*
X98533Y-55527D02*
X98533Y-53527D01*
X98533Y-53527D02*
X97783Y-53527D01*
X91783Y-54527D02*
X91783Y-53527D01*
X91783Y-53527D02*
X93783Y-53527D01*
X93783Y-53527D02*
X93783Y-55527D01*
X93783Y-55527D02*
X91783Y-55527D01*
X91783Y-55527D02*
X91783Y-54527D01*
X87500Y-50984D02*
X87500Y-58169D01*
X87500Y-58169D02*
X100098Y-58169D01*
X100098Y-58169D02*
X100098Y-50984D01*
X100098Y-50984D02*
X87500Y-50984D01*
G54D17*
X116740Y-56661D02*
X116740Y-60661D01*
X115740Y-56661D02*
X115740Y-60661D01*
X115740Y-60661D02*
X116740Y-60661D01*
X116740Y-56661D02*
X115740Y-56661D01*
X41444Y-56661D02*
X41444Y-60661D01*
X40444Y-56661D02*
X40444Y-60661D01*
X40444Y-60661D02*
X41444Y-60661D01*
X41444Y-56661D02*
X40444Y-56661D01*
G54D15*
X91773Y-60072D02*
X92773Y-60072D01*
X92773Y-60072D02*
X92773Y-62072D01*
X92773Y-62072D02*
X91773Y-62072D01*
X91773Y-62072D02*
X91773Y-60072D01*
G54D10*
X105627Y-57833D02*
X105627Y-50433D01*
X105727Y-57833D02*
X105727Y-50433D01*
X105527Y-57833D02*
X105827Y-57833D01*
X105827Y-57833D02*
X105827Y-50433D01*
X105827Y-50433D02*
X105527Y-50433D01*
X105027Y-51133D02*
X105227Y-50933D01*
X105027Y-51133D02*
X105227Y-51333D01*
X105027Y-51133D02*
X105427Y-51133D01*
X105027Y-52133D02*
X105227Y-51933D01*
X105027Y-52133D02*
X105227Y-52333D01*
X105027Y-52133D02*
X105127Y-52133D01*
X105127Y-52133D02*
X105427Y-52133D01*
X105027Y-53133D02*
X105227Y-52933D01*
X105027Y-53133D02*
X105227Y-53333D01*
X105027Y-53133D02*
X105427Y-53133D01*
X105427Y-54133D02*
X105227Y-53933D01*
X105027Y-54133D02*
X105427Y-54133D01*
X105427Y-54133D02*
X105227Y-54333D01*
X104527Y-57833D02*
X105527Y-57833D01*
X105527Y-57833D02*
X105527Y-50433D01*
X105527Y-50433D02*
X103827Y-50433D01*
X103827Y-50433D02*
X103827Y-57833D01*
X103827Y-57833D02*
X104527Y-57833D01*
G54D15*
X85751Y-56783D02*
X85751Y-57783D01*
X85751Y-57783D02*
X82751Y-57783D01*
X82751Y-57783D02*
X82751Y-56783D01*
X82751Y-56783D02*
X85751Y-56783D01*
X84751Y-57783D02*
X84751Y-56783D01*
G54D10*
X97900Y-44628D02*
X97956Y-44647D01*
X98050Y-44647D01*
X98087Y-44628D01*
X98106Y-44610D01*
X98125Y-44572D01*
X98125Y-44535D01*
X98106Y-44497D01*
X98087Y-44478D01*
X98050Y-44460D01*
X97975Y-44441D01*
X97937Y-44422D01*
X97919Y-44403D01*
X97900Y-44366D01*
X97900Y-44328D01*
X97919Y-44291D01*
X97937Y-44272D01*
X97975Y-44253D01*
X98068Y-44253D01*
X98125Y-44272D01*
X98256Y-44253D02*
X98350Y-44647D01*
X98425Y-44366D01*
X98500Y-44647D01*
X98593Y-44253D01*
X98912Y-44385D02*
X98912Y-44647D01*
X98818Y-44235D02*
X98725Y-44516D01*
X98968Y-44516D01*
G54D13*
X102078Y-56222D02*
X101911Y-55960D01*
X101792Y-56222D02*
X101792Y-55672D01*
X101983Y-55672D01*
X102030Y-55698D01*
X102054Y-55725D01*
X102078Y-55777D01*
X102078Y-55855D01*
X102054Y-55908D01*
X102030Y-55934D01*
X101983Y-55960D01*
X101792Y-55960D01*
X102554Y-56222D02*
X102269Y-56222D01*
X102411Y-56222D02*
X102411Y-55672D01*
X102364Y-55751D01*
X102316Y-55803D01*
X102269Y-55829D01*
X102721Y-55672D02*
X103054Y-55672D01*
X102840Y-56222D01*
X100678Y-58622D02*
X100511Y-58360D01*
X100392Y-58622D02*
X100392Y-58072D01*
X100583Y-58072D01*
X100630Y-58098D01*
X100654Y-58125D01*
X100678Y-58177D01*
X100678Y-58255D01*
X100654Y-58308D01*
X100630Y-58334D01*
X100583Y-58360D01*
X100392Y-58360D01*
X101154Y-58622D02*
X100869Y-58622D01*
X101011Y-58622D02*
X101011Y-58072D01*
X100964Y-58151D01*
X100916Y-58203D01*
X100869Y-58229D01*
X101392Y-58622D02*
X101488Y-58622D01*
X101535Y-58596D01*
X101559Y-58570D01*
X101607Y-58491D01*
X101630Y-58386D01*
X101630Y-58177D01*
X101607Y-58125D01*
X101583Y-58098D01*
X101535Y-58072D01*
X101440Y-58072D01*
X101392Y-58098D01*
X101369Y-58125D01*
X101345Y-58177D01*
X101345Y-58308D01*
X101369Y-58360D01*
X101392Y-58386D01*
X101440Y-58413D01*
X101535Y-58413D01*
X101583Y-58386D01*
X101607Y-58360D01*
X101630Y-58308D01*
X104478Y-59422D02*
X104311Y-59160D01*
X104192Y-59422D02*
X104192Y-58872D01*
X104383Y-58872D01*
X104430Y-58898D01*
X104454Y-58925D01*
X104478Y-58977D01*
X104478Y-59055D01*
X104454Y-59108D01*
X104430Y-59134D01*
X104383Y-59160D01*
X104192Y-59160D01*
X104954Y-59422D02*
X104669Y-59422D01*
X104811Y-59422D02*
X104811Y-58872D01*
X104764Y-58951D01*
X104716Y-59003D01*
X104669Y-59029D01*
X105240Y-59108D02*
X105192Y-59082D01*
X105169Y-59055D01*
X105145Y-59003D01*
X105145Y-58977D01*
X105169Y-58925D01*
X105192Y-58898D01*
X105240Y-58872D01*
X105335Y-58872D01*
X105383Y-58898D01*
X105407Y-58925D01*
X105430Y-58977D01*
X105430Y-59003D01*
X105407Y-59055D01*
X105383Y-59082D01*
X105335Y-59108D01*
X105240Y-59108D01*
X105192Y-59134D01*
X105169Y-59160D01*
X105145Y-59213D01*
X105145Y-59317D01*
X105169Y-59370D01*
X105192Y-59396D01*
X105240Y-59422D01*
X105335Y-59422D01*
X105383Y-59396D01*
X105407Y-59370D01*
X105430Y-59317D01*
X105430Y-59213D01*
X105407Y-59160D01*
X105383Y-59134D01*
X105335Y-59108D01*
X98466Y-43790D02*
X98204Y-43957D01*
X98466Y-44076D02*
X97916Y-44076D01*
X97916Y-43885D01*
X97942Y-43838D01*
X97969Y-43814D01*
X98021Y-43790D01*
X98100Y-43790D01*
X98152Y-43814D01*
X98178Y-43838D01*
X98204Y-43885D01*
X98204Y-44076D01*
X98100Y-43361D02*
X98466Y-43361D01*
X97890Y-43480D02*
X98283Y-43599D01*
X98283Y-43290D01*
G54D15*
X111757Y-55665D02*
X111757Y-55880D01*
X111743Y-55923D01*
X111715Y-55951D01*
X111672Y-55965D01*
X111643Y-55965D01*
X111900Y-55965D02*
X111900Y-55665D01*
X112015Y-55665D01*
X112043Y-55680D01*
X112057Y-55694D01*
X112072Y-55723D01*
X112072Y-55765D01*
X112057Y-55794D01*
X112043Y-55808D01*
X112015Y-55823D01*
X111900Y-55823D01*
X112357Y-55965D02*
X112186Y-55965D01*
X112272Y-55965D02*
X112272Y-55665D01*
X112243Y-55708D01*
X112215Y-55737D01*
X112186Y-55751D01*
G54D19*
X85856Y-41928D02*
X85856Y-41628D01*
X85927Y-41628D01*
X85970Y-41642D01*
X85999Y-41671D01*
X86013Y-41699D01*
X86027Y-41757D01*
X86027Y-41799D01*
X86013Y-41857D01*
X85999Y-41885D01*
X85970Y-41914D01*
X85927Y-41928D01*
X85856Y-41928D01*
X86313Y-41928D02*
X86141Y-41928D01*
X86227Y-41928D02*
X86227Y-41628D01*
X86199Y-41671D01*
X86170Y-41699D01*
X86141Y-41714D01*
X86599Y-41928D02*
X86427Y-41928D01*
X86513Y-41928D02*
X86513Y-41628D01*
X86484Y-41671D01*
X86456Y-41699D01*
X86427Y-41714D01*
X107509Y-41928D02*
X107509Y-41628D01*
X107581Y-41628D01*
X107624Y-41642D01*
X107652Y-41671D01*
X107666Y-41699D01*
X107681Y-41757D01*
X107681Y-41799D01*
X107666Y-41857D01*
X107652Y-41885D01*
X107624Y-41914D01*
X107581Y-41928D01*
X107509Y-41928D01*
X107795Y-41657D02*
X107809Y-41642D01*
X107838Y-41628D01*
X107909Y-41628D01*
X107938Y-41642D01*
X107952Y-41657D01*
X107966Y-41685D01*
X107966Y-41714D01*
X107952Y-41757D01*
X107781Y-41928D01*
X107966Y-41928D01*
X108152Y-41628D02*
X108181Y-41628D01*
X108209Y-41642D01*
X108224Y-41657D01*
X108238Y-41685D01*
X108252Y-41742D01*
X108252Y-41814D01*
X108238Y-41871D01*
X108224Y-41899D01*
X108209Y-41914D01*
X108181Y-41928D01*
X108152Y-41928D01*
X108124Y-41914D01*
X108109Y-41899D01*
X108095Y-41871D01*
X108081Y-41814D01*
X108081Y-41742D01*
X108095Y-41685D01*
X108109Y-41657D01*
X108124Y-41642D01*
X108152Y-41628D01*
X111840Y-41928D02*
X111840Y-41628D01*
X111911Y-41628D01*
X111954Y-41642D01*
X111983Y-41671D01*
X111997Y-41699D01*
X112011Y-41757D01*
X112011Y-41799D01*
X111997Y-41857D01*
X111983Y-41885D01*
X111954Y-41914D01*
X111911Y-41928D01*
X111840Y-41928D01*
X112126Y-41657D02*
X112140Y-41642D01*
X112169Y-41628D01*
X112240Y-41628D01*
X112269Y-41642D01*
X112283Y-41657D01*
X112297Y-41685D01*
X112297Y-41714D01*
X112283Y-41757D01*
X112111Y-41928D01*
X112297Y-41928D01*
X112469Y-41757D02*
X112440Y-41742D01*
X112426Y-41728D01*
X112411Y-41699D01*
X112411Y-41685D01*
X112426Y-41657D01*
X112440Y-41642D01*
X112469Y-41628D01*
X112526Y-41628D01*
X112554Y-41642D01*
X112569Y-41657D01*
X112583Y-41685D01*
X112583Y-41699D01*
X112569Y-41728D01*
X112554Y-41742D01*
X112526Y-41757D01*
X112469Y-41757D01*
X112440Y-41771D01*
X112426Y-41785D01*
X112411Y-41814D01*
X112411Y-41871D01*
X112426Y-41899D01*
X112440Y-41914D01*
X112469Y-41928D01*
X112526Y-41928D01*
X112554Y-41914D01*
X112569Y-41899D01*
X112583Y-41871D01*
X112583Y-41814D01*
X112569Y-41785D01*
X112554Y-41771D01*
X112526Y-41757D01*
X98991Y-41928D02*
X98991Y-41628D01*
X99062Y-41628D01*
X99105Y-41642D01*
X99134Y-41671D01*
X99148Y-41699D01*
X99162Y-41757D01*
X99162Y-41799D01*
X99148Y-41857D01*
X99134Y-41885D01*
X99105Y-41914D01*
X99062Y-41928D01*
X98991Y-41928D01*
X99419Y-41728D02*
X99419Y-41928D01*
X99348Y-41614D02*
X99276Y-41828D01*
X99462Y-41828D01*
X90186Y-42322D02*
X90186Y-42022D01*
X90258Y-42022D01*
X90301Y-42036D01*
X90329Y-42065D01*
X90344Y-42093D01*
X90358Y-42150D01*
X90358Y-42193D01*
X90344Y-42250D01*
X90329Y-42279D01*
X90301Y-42307D01*
X90258Y-42322D01*
X90186Y-42322D01*
X90644Y-42322D02*
X90472Y-42322D01*
X90558Y-42322D02*
X90558Y-42022D01*
X90529Y-42065D01*
X90501Y-42093D01*
X90472Y-42107D01*
X90786Y-42322D02*
X90844Y-42322D01*
X90872Y-42307D01*
X90886Y-42293D01*
X90915Y-42250D01*
X90929Y-42193D01*
X90929Y-42079D01*
X90915Y-42050D01*
X90901Y-42036D01*
X90872Y-42022D01*
X90815Y-42022D01*
X90786Y-42036D01*
X90772Y-42050D01*
X90758Y-42079D01*
X90758Y-42150D01*
X90772Y-42179D01*
X90786Y-42193D01*
X90815Y-42207D01*
X90872Y-42207D01*
X90901Y-42193D01*
X90915Y-42179D01*
X90929Y-42150D01*
X77194Y-41928D02*
X77194Y-41628D01*
X77266Y-41628D01*
X77309Y-41642D01*
X77337Y-41671D01*
X77351Y-41699D01*
X77366Y-41757D01*
X77366Y-41799D01*
X77351Y-41857D01*
X77337Y-41885D01*
X77309Y-41914D01*
X77266Y-41928D01*
X77194Y-41928D01*
X77480Y-41657D02*
X77494Y-41642D01*
X77523Y-41628D01*
X77594Y-41628D01*
X77623Y-41642D01*
X77637Y-41657D01*
X77651Y-41685D01*
X77651Y-41714D01*
X77637Y-41757D01*
X77466Y-41928D01*
X77651Y-41928D01*
X77909Y-41628D02*
X77851Y-41628D01*
X77823Y-41642D01*
X77809Y-41657D01*
X77780Y-41699D01*
X77766Y-41757D01*
X77766Y-41871D01*
X77780Y-41899D01*
X77794Y-41914D01*
X77823Y-41928D01*
X77880Y-41928D01*
X77909Y-41914D01*
X77923Y-41899D01*
X77937Y-41871D01*
X77937Y-41799D01*
X77923Y-41771D01*
X77909Y-41757D01*
X77880Y-41742D01*
X77823Y-41742D01*
X77794Y-41757D01*
X77780Y-41771D01*
X77766Y-41799D01*
X94517Y-41928D02*
X94517Y-41628D01*
X94589Y-41628D01*
X94631Y-41642D01*
X94660Y-41671D01*
X94674Y-41699D01*
X94689Y-41757D01*
X94689Y-41799D01*
X94674Y-41857D01*
X94660Y-41885D01*
X94631Y-41914D01*
X94589Y-41928D01*
X94517Y-41928D01*
X94803Y-41657D02*
X94817Y-41642D01*
X94846Y-41628D01*
X94917Y-41628D01*
X94946Y-41642D01*
X94960Y-41657D01*
X94974Y-41685D01*
X94974Y-41714D01*
X94960Y-41757D01*
X94789Y-41928D01*
X94974Y-41928D01*
X95074Y-41628D02*
X95274Y-41628D01*
X95146Y-41928D01*
X103179Y-41928D02*
X103179Y-41628D01*
X103250Y-41628D01*
X103293Y-41642D01*
X103321Y-41671D01*
X103336Y-41699D01*
X103350Y-41757D01*
X103350Y-41799D01*
X103336Y-41857D01*
X103321Y-41885D01*
X103293Y-41914D01*
X103250Y-41928D01*
X103179Y-41928D01*
X103636Y-41928D02*
X103464Y-41928D01*
X103550Y-41928D02*
X103550Y-41628D01*
X103521Y-41671D01*
X103493Y-41699D01*
X103464Y-41714D01*
X103750Y-41657D02*
X103764Y-41642D01*
X103793Y-41628D01*
X103864Y-41628D01*
X103893Y-41642D01*
X103907Y-41657D01*
X103921Y-41685D01*
X103921Y-41714D01*
X103907Y-41757D01*
X103736Y-41928D01*
X103921Y-41928D01*
X81668Y-41928D02*
X81668Y-41628D01*
X81739Y-41628D01*
X81782Y-41642D01*
X81811Y-41671D01*
X81825Y-41699D01*
X81839Y-41757D01*
X81839Y-41799D01*
X81825Y-41857D01*
X81811Y-41885D01*
X81782Y-41914D01*
X81739Y-41928D01*
X81668Y-41928D01*
X81939Y-41628D02*
X82125Y-41628D01*
X82025Y-41742D01*
X82068Y-41742D01*
X82096Y-41757D01*
X82111Y-41771D01*
X82125Y-41799D01*
X82125Y-41871D01*
X82111Y-41899D01*
X82096Y-41914D01*
X82068Y-41928D01*
X81982Y-41928D01*
X81954Y-41914D01*
X81939Y-41899D01*
X47022Y-41928D02*
X47022Y-41628D01*
X47094Y-41628D01*
X47136Y-41642D01*
X47165Y-41671D01*
X47179Y-41699D01*
X47194Y-41757D01*
X47194Y-41799D01*
X47179Y-41857D01*
X47165Y-41885D01*
X47136Y-41914D01*
X47094Y-41928D01*
X47022Y-41928D01*
X47479Y-41928D02*
X47308Y-41928D01*
X47394Y-41928D02*
X47394Y-41628D01*
X47365Y-41671D01*
X47336Y-41699D01*
X47308Y-41714D01*
X72864Y-41928D02*
X72864Y-41628D01*
X72935Y-41628D01*
X72978Y-41642D01*
X73006Y-41671D01*
X73021Y-41699D01*
X73035Y-41757D01*
X73035Y-41799D01*
X73021Y-41857D01*
X73006Y-41885D01*
X72978Y-41914D01*
X72935Y-41928D01*
X72864Y-41928D01*
X73321Y-41928D02*
X73149Y-41928D01*
X73235Y-41928D02*
X73235Y-41628D01*
X73206Y-41671D01*
X73178Y-41699D01*
X73149Y-41714D01*
X73492Y-41757D02*
X73464Y-41742D01*
X73449Y-41728D01*
X73435Y-41699D01*
X73435Y-41685D01*
X73449Y-41657D01*
X73464Y-41642D01*
X73492Y-41628D01*
X73549Y-41628D01*
X73578Y-41642D01*
X73592Y-41657D01*
X73606Y-41685D01*
X73606Y-41699D01*
X73592Y-41728D01*
X73578Y-41742D01*
X73549Y-41757D01*
X73492Y-41757D01*
X73464Y-41771D01*
X73449Y-41785D01*
X73435Y-41814D01*
X73435Y-41871D01*
X73449Y-41899D01*
X73464Y-41914D01*
X73492Y-41928D01*
X73549Y-41928D01*
X73578Y-41914D01*
X73592Y-41899D01*
X73606Y-41871D01*
X73606Y-41814D01*
X73592Y-41785D01*
X73578Y-41771D01*
X73549Y-41757D01*
X51353Y-41928D02*
X51353Y-41628D01*
X51424Y-41628D01*
X51467Y-41642D01*
X51496Y-41671D01*
X51510Y-41699D01*
X51524Y-41757D01*
X51524Y-41799D01*
X51510Y-41857D01*
X51496Y-41885D01*
X51467Y-41914D01*
X51424Y-41928D01*
X51353Y-41928D01*
X51667Y-41928D02*
X51724Y-41928D01*
X51753Y-41914D01*
X51767Y-41899D01*
X51796Y-41857D01*
X51810Y-41799D01*
X51810Y-41685D01*
X51796Y-41657D01*
X51781Y-41642D01*
X51753Y-41628D01*
X51696Y-41628D01*
X51667Y-41642D01*
X51653Y-41657D01*
X51639Y-41685D01*
X51639Y-41757D01*
X51653Y-41785D01*
X51667Y-41799D01*
X51696Y-41814D01*
X51753Y-41814D01*
X51781Y-41799D01*
X51796Y-41785D01*
X51810Y-41757D01*
X68533Y-41928D02*
X68533Y-41628D01*
X68604Y-41628D01*
X68647Y-41642D01*
X68676Y-41671D01*
X68690Y-41699D01*
X68704Y-41757D01*
X68704Y-41799D01*
X68690Y-41857D01*
X68676Y-41885D01*
X68647Y-41914D01*
X68604Y-41928D01*
X68533Y-41928D01*
X68990Y-41928D02*
X68819Y-41928D01*
X68904Y-41928D02*
X68904Y-41628D01*
X68876Y-41671D01*
X68847Y-41699D01*
X68819Y-41714D01*
X69176Y-41628D02*
X69204Y-41628D01*
X69233Y-41642D01*
X69247Y-41657D01*
X69261Y-41685D01*
X69276Y-41742D01*
X69276Y-41814D01*
X69261Y-41871D01*
X69247Y-41899D01*
X69233Y-41914D01*
X69204Y-41928D01*
X69176Y-41928D01*
X69147Y-41914D01*
X69133Y-41899D01*
X69119Y-41871D01*
X69104Y-41814D01*
X69104Y-41742D01*
X69119Y-41685D01*
X69133Y-41657D01*
X69147Y-41642D01*
X69176Y-41628D01*
X55541Y-41928D02*
X55541Y-41628D01*
X55612Y-41628D01*
X55655Y-41642D01*
X55684Y-41671D01*
X55698Y-41699D01*
X55712Y-41757D01*
X55712Y-41799D01*
X55698Y-41857D01*
X55684Y-41885D01*
X55655Y-41914D01*
X55612Y-41928D01*
X55541Y-41928D01*
X55998Y-41928D02*
X55826Y-41928D01*
X55912Y-41928D02*
X55912Y-41628D01*
X55884Y-41671D01*
X55855Y-41699D01*
X55826Y-41714D01*
X56098Y-41628D02*
X56298Y-41628D01*
X56169Y-41928D01*
X59871Y-41928D02*
X59871Y-41628D01*
X59943Y-41628D01*
X59986Y-41642D01*
X60014Y-41671D01*
X60029Y-41699D01*
X60043Y-41757D01*
X60043Y-41799D01*
X60029Y-41857D01*
X60014Y-41885D01*
X59986Y-41914D01*
X59943Y-41928D01*
X59871Y-41928D01*
X60157Y-41657D02*
X60171Y-41642D01*
X60200Y-41628D01*
X60271Y-41628D01*
X60300Y-41642D01*
X60314Y-41657D01*
X60329Y-41685D01*
X60329Y-41714D01*
X60314Y-41757D01*
X60143Y-41928D01*
X60329Y-41928D01*
X60600Y-41628D02*
X60457Y-41628D01*
X60443Y-41771D01*
X60457Y-41757D01*
X60486Y-41742D01*
X60557Y-41742D01*
X60586Y-41757D01*
X60600Y-41771D01*
X60614Y-41799D01*
X60614Y-41871D01*
X60600Y-41899D01*
X60586Y-41914D01*
X60557Y-41928D01*
X60486Y-41928D01*
X60457Y-41914D01*
X60443Y-41899D01*
X64345Y-41928D02*
X64345Y-41628D01*
X64416Y-41628D01*
X64459Y-41642D01*
X64488Y-41671D01*
X64502Y-41699D01*
X64516Y-41757D01*
X64516Y-41799D01*
X64502Y-41857D01*
X64488Y-41885D01*
X64459Y-41914D01*
X64416Y-41928D01*
X64345Y-41928D01*
X64631Y-41657D02*
X64645Y-41642D01*
X64674Y-41628D01*
X64745Y-41628D01*
X64774Y-41642D01*
X64788Y-41657D01*
X64802Y-41685D01*
X64802Y-41714D01*
X64788Y-41757D01*
X64616Y-41928D01*
X64802Y-41928D01*
G54D20*
X73535Y-53079D02*
X73535Y-53565D01*
X73556Y-53622D01*
X73577Y-53651D01*
X73620Y-53679D01*
X73706Y-53679D01*
X73749Y-53651D01*
X73770Y-53622D01*
X73792Y-53565D01*
X73792Y-53079D01*
X73963Y-53079D02*
X74242Y-53079D01*
X74092Y-53308D01*
X74156Y-53308D01*
X74199Y-53337D01*
X74220Y-53365D01*
X74242Y-53422D01*
X74242Y-53565D01*
X74220Y-53622D01*
X74199Y-53651D01*
X74156Y-53679D01*
X74027Y-53679D01*
X73985Y-53651D01*
X73963Y-53622D01*
G54D18*
G54D20*
X60149Y-53079D02*
X60149Y-53565D01*
X60170Y-53622D01*
X60192Y-53651D01*
X60234Y-53679D01*
X60320Y-53679D01*
X60363Y-53651D01*
X60384Y-53622D01*
X60406Y-53565D01*
X60406Y-53079D01*
X60599Y-53137D02*
X60620Y-53108D01*
X60663Y-53079D01*
X60770Y-53079D01*
X60813Y-53108D01*
X60834Y-53137D01*
X60856Y-53194D01*
X60856Y-53251D01*
X60834Y-53337D01*
X60577Y-53679D01*
X60856Y-53679D01*
G54D18*
G54D13*
X84947Y-38350D02*
X84947Y-37950D01*
X85042Y-37950D01*
X85099Y-37969D01*
X85137Y-38008D01*
X85156Y-38046D01*
X85175Y-38122D01*
X85175Y-38179D01*
X85156Y-38255D01*
X85137Y-38293D01*
X85099Y-38331D01*
X85042Y-38350D01*
X84947Y-38350D01*
X85556Y-38350D02*
X85328Y-38350D01*
X85442Y-38350D02*
X85442Y-37950D01*
X85404Y-38008D01*
X85366Y-38046D01*
X85328Y-38065D01*
X85918Y-37950D02*
X85728Y-37950D01*
X85709Y-38141D01*
X85728Y-38122D01*
X85766Y-38103D01*
X85861Y-38103D01*
X85899Y-38122D01*
X85918Y-38141D01*
X85937Y-38179D01*
X85937Y-38274D01*
X85918Y-38312D01*
X85899Y-38331D01*
X85861Y-38350D01*
X85766Y-38350D01*
X85728Y-38331D01*
X85709Y-38312D01*
X80807Y-38350D02*
X80807Y-37950D01*
X80902Y-37950D01*
X80959Y-37969D01*
X80997Y-38008D01*
X81016Y-38046D01*
X81035Y-38122D01*
X81035Y-38179D01*
X81016Y-38255D01*
X80997Y-38293D01*
X80959Y-38331D01*
X80902Y-38350D01*
X80807Y-38350D01*
X81169Y-37950D02*
X81435Y-37950D01*
X81264Y-38350D01*
X76285Y-38350D02*
X76285Y-37950D01*
X76381Y-37950D01*
X76438Y-37969D01*
X76476Y-38008D01*
X76495Y-38046D01*
X76514Y-38122D01*
X76514Y-38179D01*
X76495Y-38255D01*
X76476Y-38293D01*
X76438Y-38331D01*
X76381Y-38350D01*
X76285Y-38350D01*
X76647Y-37950D02*
X76895Y-37950D01*
X76762Y-38103D01*
X76819Y-38103D01*
X76857Y-38122D01*
X76876Y-38141D01*
X76895Y-38179D01*
X76895Y-38274D01*
X76876Y-38312D01*
X76857Y-38331D01*
X76819Y-38350D01*
X76704Y-38350D01*
X76666Y-38331D01*
X76647Y-38312D01*
X77143Y-37950D02*
X77181Y-37950D01*
X77219Y-37969D01*
X77238Y-37988D01*
X77257Y-38027D01*
X77276Y-38103D01*
X77276Y-38198D01*
X77257Y-38274D01*
X77238Y-38312D01*
X77219Y-38331D01*
X77181Y-38350D01*
X77143Y-38350D01*
X77104Y-38331D01*
X77085Y-38312D01*
X77066Y-38274D01*
X77047Y-38198D01*
X77047Y-38103D01*
X77066Y-38027D01*
X77085Y-37988D01*
X77104Y-37969D01*
X77143Y-37950D01*
X106600Y-38350D02*
X106600Y-37950D01*
X106696Y-37950D01*
X106753Y-37969D01*
X106791Y-38008D01*
X106810Y-38046D01*
X106829Y-38122D01*
X106829Y-38179D01*
X106810Y-38255D01*
X106791Y-38293D01*
X106753Y-38331D01*
X106696Y-38350D01*
X106600Y-38350D01*
X106981Y-37988D02*
X107000Y-37969D01*
X107038Y-37950D01*
X107134Y-37950D01*
X107172Y-37969D01*
X107191Y-37988D01*
X107210Y-38027D01*
X107210Y-38065D01*
X107191Y-38122D01*
X106962Y-38350D01*
X107210Y-38350D01*
X107553Y-38084D02*
X107553Y-38350D01*
X107458Y-37931D02*
X107362Y-38217D01*
X107610Y-38217D01*
X112071Y-54225D02*
X111671Y-54225D01*
X111671Y-54130D01*
X111690Y-54073D01*
X111728Y-54035D01*
X111766Y-54016D01*
X111842Y-53997D01*
X111899Y-53997D01*
X111976Y-54016D01*
X112014Y-54035D01*
X112052Y-54073D01*
X112071Y-54130D01*
X112071Y-54225D01*
X111671Y-53863D02*
X111671Y-53616D01*
X111823Y-53749D01*
X111823Y-53692D01*
X111842Y-53654D01*
X111861Y-53635D01*
X111899Y-53616D01*
X111995Y-53616D01*
X112033Y-53635D01*
X112052Y-53654D01*
X112071Y-53692D01*
X112071Y-53806D01*
X112052Y-53844D01*
X112033Y-53863D01*
X111671Y-53483D02*
X111671Y-53235D01*
X111823Y-53368D01*
X111823Y-53311D01*
X111842Y-53273D01*
X111861Y-53254D01*
X111899Y-53235D01*
X111995Y-53235D01*
X112033Y-53254D01*
X112052Y-53273D01*
X112071Y-53311D01*
X112071Y-53425D01*
X112052Y-53463D01*
X112033Y-53483D01*
X102270Y-38350D02*
X102270Y-37950D01*
X102365Y-37950D01*
X102422Y-37969D01*
X102460Y-38008D01*
X102479Y-38046D01*
X102498Y-38122D01*
X102498Y-38179D01*
X102479Y-38255D01*
X102460Y-38293D01*
X102422Y-38331D01*
X102365Y-38350D01*
X102270Y-38350D01*
X102879Y-38350D02*
X102651Y-38350D01*
X102765Y-38350D02*
X102765Y-37950D01*
X102727Y-38008D01*
X102689Y-38046D01*
X102651Y-38065D01*
X103222Y-37950D02*
X103146Y-37950D01*
X103108Y-37969D01*
X103089Y-37988D01*
X103051Y-38046D01*
X103032Y-38122D01*
X103032Y-38274D01*
X103051Y-38312D01*
X103070Y-38331D01*
X103108Y-38350D01*
X103184Y-38350D01*
X103222Y-38331D01*
X103241Y-38312D01*
X103260Y-38274D01*
X103260Y-38179D01*
X103241Y-38141D01*
X103222Y-38122D01*
X103184Y-38103D01*
X103108Y-38103D01*
X103070Y-38122D01*
X103051Y-38141D01*
X103032Y-38179D01*
X110931Y-38350D02*
X110931Y-37950D01*
X111026Y-37950D01*
X111083Y-37969D01*
X111122Y-38008D01*
X111141Y-38046D01*
X111160Y-38122D01*
X111160Y-38179D01*
X111141Y-38255D01*
X111122Y-38293D01*
X111083Y-38331D01*
X111026Y-38350D01*
X110931Y-38350D01*
X111293Y-37950D02*
X111541Y-37950D01*
X111407Y-38103D01*
X111464Y-38103D01*
X111503Y-38122D01*
X111522Y-38141D01*
X111541Y-38179D01*
X111541Y-38274D01*
X111522Y-38312D01*
X111503Y-38331D01*
X111464Y-38350D01*
X111350Y-38350D01*
X111312Y-38331D01*
X111293Y-38312D01*
X111693Y-37988D02*
X111712Y-37969D01*
X111750Y-37950D01*
X111845Y-37950D01*
X111883Y-37969D01*
X111903Y-37988D01*
X111922Y-38027D01*
X111922Y-38065D01*
X111903Y-38122D01*
X111674Y-38350D01*
X111922Y-38350D01*
X63484Y-38350D02*
X63484Y-37950D01*
X63579Y-37950D01*
X63636Y-37969D01*
X63674Y-38008D01*
X63693Y-38046D01*
X63712Y-38122D01*
X63712Y-38179D01*
X63693Y-38255D01*
X63674Y-38293D01*
X63636Y-38331D01*
X63579Y-38350D01*
X63484Y-38350D01*
X64055Y-37950D02*
X63979Y-37950D01*
X63941Y-37969D01*
X63922Y-37988D01*
X63884Y-38046D01*
X63865Y-38122D01*
X63865Y-38274D01*
X63884Y-38312D01*
X63903Y-38331D01*
X63941Y-38350D01*
X64017Y-38350D01*
X64055Y-38331D01*
X64074Y-38312D01*
X64093Y-38274D01*
X64093Y-38179D01*
X64074Y-38141D01*
X64055Y-38122D01*
X64017Y-38103D01*
X63941Y-38103D01*
X63903Y-38122D01*
X63884Y-38141D01*
X63865Y-38179D01*
X46161Y-38350D02*
X46161Y-37950D01*
X46256Y-37950D01*
X46313Y-37969D01*
X46351Y-38008D01*
X46370Y-38046D01*
X46390Y-38122D01*
X46390Y-38179D01*
X46370Y-38255D01*
X46351Y-38293D01*
X46313Y-38331D01*
X46256Y-38350D01*
X46161Y-38350D01*
X46751Y-37950D02*
X46561Y-37950D01*
X46542Y-38141D01*
X46561Y-38122D01*
X46599Y-38103D01*
X46694Y-38103D01*
X46732Y-38122D01*
X46751Y-38141D01*
X46770Y-38179D01*
X46770Y-38274D01*
X46751Y-38312D01*
X46732Y-38331D01*
X46694Y-38350D01*
X46599Y-38350D01*
X46561Y-38331D01*
X46542Y-38312D01*
X98129Y-38350D02*
X98129Y-37950D01*
X98225Y-37950D01*
X98282Y-37969D01*
X98320Y-38008D01*
X98339Y-38046D01*
X98358Y-38122D01*
X98358Y-38179D01*
X98339Y-38255D01*
X98320Y-38293D01*
X98282Y-38331D01*
X98225Y-38350D01*
X98129Y-38350D01*
X98587Y-38122D02*
X98549Y-38103D01*
X98529Y-38084D01*
X98510Y-38046D01*
X98510Y-38027D01*
X98529Y-37988D01*
X98549Y-37969D01*
X98587Y-37950D01*
X98663Y-37950D01*
X98701Y-37969D01*
X98720Y-37988D01*
X98739Y-38027D01*
X98739Y-38046D01*
X98720Y-38084D01*
X98701Y-38103D01*
X98663Y-38122D01*
X98587Y-38122D01*
X98549Y-38141D01*
X98529Y-38160D01*
X98510Y-38198D01*
X98510Y-38274D01*
X98529Y-38312D01*
X98549Y-38331D01*
X98587Y-38350D01*
X98663Y-38350D01*
X98701Y-38331D01*
X98720Y-38312D01*
X98739Y-38274D01*
X98739Y-38198D01*
X98720Y-38160D01*
X98701Y-38141D01*
X98663Y-38122D01*
X50301Y-38350D02*
X50301Y-37950D01*
X50396Y-37950D01*
X50454Y-37969D01*
X50492Y-38008D01*
X50511Y-38046D01*
X50530Y-38122D01*
X50530Y-38179D01*
X50511Y-38255D01*
X50492Y-38293D01*
X50454Y-38331D01*
X50396Y-38350D01*
X50301Y-38350D01*
X50911Y-38350D02*
X50682Y-38350D01*
X50796Y-38350D02*
X50796Y-37950D01*
X50758Y-38008D01*
X50720Y-38046D01*
X50682Y-38065D01*
X51044Y-37950D02*
X51292Y-37950D01*
X51158Y-38103D01*
X51215Y-38103D01*
X51254Y-38122D01*
X51273Y-38141D01*
X51292Y-38179D01*
X51292Y-38274D01*
X51273Y-38312D01*
X51254Y-38331D01*
X51215Y-38350D01*
X51101Y-38350D01*
X51063Y-38331D01*
X51044Y-38312D01*
X71955Y-38350D02*
X71955Y-37950D01*
X72050Y-37950D01*
X72107Y-37969D01*
X72145Y-38008D01*
X72164Y-38046D01*
X72183Y-38122D01*
X72183Y-38179D01*
X72164Y-38255D01*
X72145Y-38293D01*
X72107Y-38331D01*
X72050Y-38350D01*
X71955Y-38350D01*
X72336Y-37988D02*
X72355Y-37969D01*
X72393Y-37950D01*
X72488Y-37950D01*
X72526Y-37969D01*
X72545Y-37988D01*
X72564Y-38027D01*
X72564Y-38065D01*
X72545Y-38122D01*
X72317Y-38350D01*
X72564Y-38350D01*
X72717Y-37988D02*
X72736Y-37969D01*
X72774Y-37950D01*
X72869Y-37950D01*
X72907Y-37969D01*
X72926Y-37988D01*
X72945Y-38027D01*
X72945Y-38065D01*
X72926Y-38122D01*
X72698Y-38350D01*
X72945Y-38350D01*
X54632Y-38350D02*
X54632Y-37950D01*
X54727Y-37950D01*
X54784Y-37969D01*
X54822Y-38008D01*
X54841Y-38046D01*
X54860Y-38122D01*
X54860Y-38179D01*
X54841Y-38255D01*
X54822Y-38293D01*
X54784Y-38331D01*
X54727Y-38350D01*
X54632Y-38350D01*
X55013Y-37988D02*
X55032Y-37969D01*
X55070Y-37950D01*
X55165Y-37950D01*
X55203Y-37969D01*
X55222Y-37988D01*
X55241Y-38027D01*
X55241Y-38065D01*
X55222Y-38122D01*
X54994Y-38350D01*
X55241Y-38350D01*
X55622Y-38350D02*
X55394Y-38350D01*
X55508Y-38350D02*
X55508Y-37950D01*
X55470Y-38008D01*
X55432Y-38046D01*
X55394Y-38065D01*
X67624Y-38350D02*
X67624Y-37950D01*
X67719Y-37950D01*
X67776Y-37969D01*
X67814Y-38008D01*
X67834Y-38046D01*
X67853Y-38122D01*
X67853Y-38179D01*
X67834Y-38255D01*
X67814Y-38293D01*
X67776Y-38331D01*
X67719Y-38350D01*
X67624Y-38350D01*
X68234Y-38350D02*
X68005Y-38350D01*
X68119Y-38350D02*
X68119Y-37950D01*
X68081Y-38008D01*
X68043Y-38046D01*
X68005Y-38065D01*
X68576Y-38084D02*
X68576Y-38350D01*
X68481Y-37931D02*
X68386Y-38217D01*
X68634Y-38217D01*
X93608Y-38350D02*
X93608Y-37950D01*
X93704Y-37950D01*
X93761Y-37969D01*
X93799Y-38008D01*
X93818Y-38046D01*
X93837Y-38122D01*
X93837Y-38179D01*
X93818Y-38255D01*
X93799Y-38293D01*
X93761Y-38331D01*
X93704Y-38350D01*
X93608Y-38350D01*
X93970Y-37950D02*
X94218Y-37950D01*
X94084Y-38103D01*
X94142Y-38103D01*
X94180Y-38122D01*
X94199Y-38141D01*
X94218Y-38179D01*
X94218Y-38274D01*
X94199Y-38312D01*
X94180Y-38331D01*
X94142Y-38350D01*
X94027Y-38350D01*
X93989Y-38331D01*
X93970Y-38312D01*
X94599Y-38350D02*
X94370Y-38350D01*
X94484Y-38350D02*
X94484Y-37950D01*
X94446Y-38008D01*
X94408Y-38046D01*
X94370Y-38065D01*
X58963Y-38350D02*
X58963Y-37950D01*
X59058Y-37950D01*
X59115Y-37969D01*
X59153Y-38008D01*
X59172Y-38046D01*
X59191Y-38122D01*
X59191Y-38179D01*
X59172Y-38255D01*
X59153Y-38293D01*
X59115Y-38331D01*
X59058Y-38350D01*
X58963Y-38350D01*
X59344Y-37988D02*
X59363Y-37969D01*
X59401Y-37950D01*
X59496Y-37950D01*
X59534Y-37969D01*
X59553Y-37988D01*
X59572Y-38027D01*
X59572Y-38065D01*
X59553Y-38122D01*
X59325Y-38350D01*
X59572Y-38350D01*
X59763Y-38350D02*
X59839Y-38350D01*
X59877Y-38331D01*
X59896Y-38312D01*
X59934Y-38255D01*
X59953Y-38179D01*
X59953Y-38027D01*
X59934Y-37988D01*
X59915Y-37969D01*
X59877Y-37950D01*
X59801Y-37950D01*
X59763Y-37969D01*
X59744Y-37988D01*
X59725Y-38027D01*
X59725Y-38122D01*
X59744Y-38160D01*
X59763Y-38179D01*
X59801Y-38198D01*
X59877Y-38198D01*
X59915Y-38179D01*
X59934Y-38160D01*
X59953Y-38122D01*
X89278Y-38350D02*
X89278Y-37950D01*
X89373Y-37950D01*
X89430Y-37969D01*
X89468Y-38008D01*
X89487Y-38046D01*
X89506Y-38122D01*
X89506Y-38179D01*
X89487Y-38255D01*
X89468Y-38293D01*
X89430Y-38331D01*
X89373Y-38350D01*
X89278Y-38350D01*
X89659Y-37988D02*
X89678Y-37969D01*
X89716Y-37950D01*
X89811Y-37950D01*
X89849Y-37969D01*
X89868Y-37988D01*
X89887Y-38027D01*
X89887Y-38065D01*
X89868Y-38122D01*
X89639Y-38350D01*
X89887Y-38350D01*
X90020Y-37950D02*
X90268Y-37950D01*
X90135Y-38103D01*
X90192Y-38103D01*
X90230Y-38122D01*
X90249Y-38141D01*
X90268Y-38179D01*
X90268Y-38274D01*
X90249Y-38312D01*
X90230Y-38331D01*
X90192Y-38350D01*
X90078Y-38350D01*
X90039Y-38331D01*
X90020Y-38312D01*
X108477Y-52420D02*
X108496Y-52437D01*
X108515Y-52487D01*
X108515Y-52520D01*
X108496Y-52570D01*
X108458Y-52603D01*
X108420Y-52620D01*
X108344Y-52637D01*
X108286Y-52637D01*
X108210Y-52620D01*
X108172Y-52603D01*
X108134Y-52570D01*
X108115Y-52520D01*
X108115Y-52487D01*
X108134Y-52437D01*
X108153Y-52420D01*
X108248Y-52120D02*
X108515Y-52120D01*
X108096Y-52203D02*
X108382Y-52287D01*
X108382Y-52070D01*
X109167Y-51391D02*
X109167Y-50934D01*
X109396Y-51163D02*
X108939Y-51163D01*
X116868Y-39231D02*
X116887Y-39248D01*
X116906Y-39298D01*
X116906Y-39331D01*
X116887Y-39381D01*
X116849Y-39414D01*
X116811Y-39431D01*
X116735Y-39448D01*
X116678Y-39448D01*
X116602Y-39431D01*
X116563Y-39414D01*
X116525Y-39381D01*
X116506Y-39331D01*
X116506Y-39298D01*
X116525Y-39248D01*
X116544Y-39231D01*
X116506Y-39114D02*
X116506Y-38881D01*
X116906Y-39031D01*
X115959Y-40600D02*
X115959Y-40143D01*
X116187Y-40372D02*
X115730Y-40372D01*
X112431Y-51220D02*
X112412Y-51239D01*
X112355Y-51258D01*
X112317Y-51258D01*
X112260Y-51239D01*
X112222Y-51201D01*
X112203Y-51163D01*
X112184Y-51087D01*
X112184Y-51030D01*
X112203Y-50953D01*
X112222Y-50915D01*
X112260Y-50877D01*
X112317Y-50858D01*
X112355Y-50858D01*
X112412Y-50877D01*
X112431Y-50896D01*
X112812Y-51258D02*
X112584Y-51258D01*
X112698Y-51258D02*
X112698Y-50858D01*
X112660Y-50915D01*
X112622Y-50953D01*
X112584Y-50973D01*
X111841Y-58897D02*
X111822Y-58916D01*
X111765Y-58935D01*
X111726Y-58935D01*
X111669Y-58916D01*
X111631Y-58878D01*
X111612Y-58840D01*
X111593Y-58764D01*
X111593Y-58707D01*
X111612Y-58631D01*
X111631Y-58593D01*
X111669Y-58554D01*
X111726Y-58535D01*
X111765Y-58535D01*
X111822Y-58554D01*
X111841Y-58574D01*
X112184Y-58535D02*
X112107Y-58535D01*
X112069Y-58554D01*
X112050Y-58574D01*
X112012Y-58631D01*
X111993Y-58707D01*
X111993Y-58859D01*
X112012Y-58897D01*
X112031Y-58916D01*
X112069Y-58935D01*
X112145Y-58935D01*
X112184Y-58916D01*
X112203Y-58897D01*
X112222Y-58859D01*
X112222Y-58764D01*
X112203Y-58726D01*
X112184Y-58707D01*
X112145Y-58688D01*
X112069Y-58688D01*
X112031Y-58707D01*
X112012Y-58726D01*
X111993Y-58764D01*
X70207Y-59193D02*
X70188Y-59212D01*
X70131Y-59231D01*
X70093Y-59231D01*
X70035Y-59212D01*
X69997Y-59174D01*
X69978Y-59135D01*
X69959Y-59059D01*
X69959Y-59002D01*
X69978Y-58926D01*
X69997Y-58888D01*
X70035Y-58850D01*
X70093Y-58831D01*
X70131Y-58831D01*
X70188Y-58850D01*
X70207Y-58869D01*
X70340Y-58831D02*
X70588Y-58831D01*
X70454Y-58983D01*
X70512Y-58983D01*
X70550Y-59002D01*
X70569Y-59021D01*
X70588Y-59059D01*
X70588Y-59155D01*
X70569Y-59193D01*
X70550Y-59212D01*
X70512Y-59231D01*
X70397Y-59231D01*
X70359Y-59212D01*
X70340Y-59193D01*
X108888Y-55945D02*
X108869Y-55964D01*
X108812Y-55983D01*
X108774Y-55983D01*
X108717Y-55964D01*
X108678Y-55926D01*
X108659Y-55887D01*
X108640Y-55811D01*
X108640Y-55754D01*
X108659Y-55678D01*
X108678Y-55640D01*
X108717Y-55602D01*
X108774Y-55583D01*
X108812Y-55583D01*
X108869Y-55602D01*
X108888Y-55621D01*
X109040Y-55621D02*
X109059Y-55602D01*
X109097Y-55583D01*
X109193Y-55583D01*
X109231Y-55602D01*
X109250Y-55621D01*
X109269Y-55659D01*
X109269Y-55697D01*
X109250Y-55754D01*
X109021Y-55983D01*
X109269Y-55983D01*
X115168Y-35596D02*
X115187Y-35615D01*
X115206Y-35672D01*
X115206Y-35710D01*
X115187Y-35768D01*
X115149Y-35806D01*
X115111Y-35825D01*
X115035Y-35844D01*
X114978Y-35844D01*
X114902Y-35825D01*
X114863Y-35806D01*
X114825Y-35768D01*
X114806Y-35710D01*
X114806Y-35672D01*
X114825Y-35615D01*
X114844Y-35596D01*
X114806Y-35234D02*
X114806Y-35425D01*
X114997Y-35444D01*
X114978Y-35425D01*
X114959Y-35387D01*
X114959Y-35291D01*
X114978Y-35253D01*
X114997Y-35234D01*
X115035Y-35215D01*
X115130Y-35215D01*
X115168Y-35234D01*
X115187Y-35253D01*
X115206Y-35291D01*
X115206Y-35387D01*
X115187Y-35425D01*
X115168Y-35444D01*
G54D21*
X106484Y-62727D02*
X107035Y-62727D01*
X107100Y-62707D01*
X107132Y-62686D01*
X107165Y-62646D01*
X107165Y-62564D01*
X107132Y-62523D01*
X107100Y-62503D01*
X107035Y-62483D01*
X106484Y-62483D01*
X106711Y-62095D02*
X107165Y-62095D01*
X106451Y-62197D02*
X106938Y-62299D01*
X106938Y-62034D01*
G54D18*
G54D10*
X107449Y-56479D02*
X107505Y-56497D01*
X107599Y-56497D01*
X107636Y-56479D01*
X107655Y-56460D01*
X107674Y-56422D01*
X107674Y-56385D01*
X107655Y-56347D01*
X107636Y-56329D01*
X107599Y-56310D01*
X107524Y-56291D01*
X107486Y-56272D01*
X107468Y-56254D01*
X107449Y-56216D01*
X107449Y-56179D01*
X107468Y-56141D01*
X107486Y-56122D01*
X107524Y-56104D01*
X107618Y-56104D01*
X107674Y-56122D01*
X107786Y-56104D02*
X108011Y-56104D01*
X107899Y-56497D02*
X107899Y-56104D01*
X108124Y-56385D02*
X108311Y-56385D01*
X108086Y-56497D02*
X108218Y-56104D01*
X108349Y-56497D01*
X108424Y-56104D02*
X108649Y-56104D01*
X108536Y-56497D02*
X108536Y-56104D01*
X108780Y-56291D02*
X108911Y-56291D01*
X108967Y-56497D02*
X108780Y-56497D01*
X108780Y-56104D01*
X108967Y-56104D01*
X107670Y-57482D02*
X107539Y-57294D01*
X107445Y-57482D02*
X107445Y-57088D01*
X107595Y-57088D01*
X107633Y-57107D01*
X107651Y-57125D01*
X107670Y-57163D01*
X107670Y-57219D01*
X107651Y-57257D01*
X107633Y-57275D01*
X107595Y-57294D01*
X107445Y-57294D01*
X107801Y-57088D02*
X108064Y-57482D01*
X108064Y-57088D02*
X107801Y-57482D01*
X107475Y-58112D02*
X107700Y-58112D01*
X107588Y-58505D02*
X107588Y-58112D01*
X107794Y-58112D02*
X108056Y-58505D01*
X108056Y-58112D02*
X107794Y-58505D01*
X107672Y-59115D02*
X107634Y-59096D01*
X107578Y-59096D01*
X107522Y-59115D01*
X107485Y-59152D01*
X107466Y-59190D01*
X107447Y-59265D01*
X107447Y-59321D01*
X107466Y-59396D01*
X107485Y-59433D01*
X107522Y-59471D01*
X107578Y-59490D01*
X107616Y-59490D01*
X107672Y-59471D01*
X107691Y-59452D01*
X107691Y-59321D01*
X107616Y-59321D01*
X107859Y-59490D02*
X107859Y-59096D01*
X108084Y-59490D01*
X108084Y-59096D01*
X108272Y-59490D02*
X108272Y-59096D01*
X108366Y-59096D01*
X108422Y-59115D01*
X108459Y-59152D01*
X108478Y-59190D01*
X108497Y-59265D01*
X108497Y-59321D01*
X108478Y-59396D01*
X108459Y-59433D01*
X108422Y-59471D01*
X108366Y-59490D01*
X108272Y-59490D01*
X107503Y-60198D02*
X107634Y-60592D01*
X107766Y-60198D01*
X108066Y-60573D02*
X108028Y-60592D01*
X107953Y-60592D01*
X107916Y-60573D01*
X107897Y-60554D01*
X107878Y-60517D01*
X107878Y-60404D01*
X107897Y-60367D01*
X107916Y-60348D01*
X107953Y-60329D01*
X108028Y-60329D01*
X108066Y-60348D01*
X108403Y-60573D02*
X108366Y-60592D01*
X108291Y-60592D01*
X108253Y-60573D01*
X108234Y-60554D01*
X108216Y-60517D01*
X108216Y-60404D01*
X108234Y-60367D01*
X108253Y-60348D01*
X108291Y-60329D01*
X108366Y-60329D01*
X108403Y-60348D01*
X107473Y-61331D02*
X107604Y-61331D01*
X107661Y-61537D02*
X107473Y-61537D01*
X107473Y-61143D01*
X107661Y-61143D01*
X107829Y-61274D02*
X107829Y-61537D01*
X107829Y-61312D02*
X107848Y-61293D01*
X107886Y-61274D01*
X107942Y-61274D01*
X107979Y-61293D01*
X107998Y-61331D01*
X107998Y-61537D01*
G54D18*
X110688Y-32101D02*
X110688Y-31501D01*
X110917Y-31501D01*
X110974Y-31529D01*
X111003Y-31558D01*
X111031Y-31615D01*
X111031Y-31701D01*
X111003Y-31758D01*
X110974Y-31786D01*
X110917Y-31815D01*
X110688Y-31815D01*
X111603Y-32101D02*
X111260Y-32101D01*
X111431Y-32101D02*
X111431Y-31501D01*
X111374Y-31586D01*
X111317Y-31643D01*
X111260Y-31672D01*
X112117Y-31501D02*
X112003Y-31501D01*
X111945Y-31529D01*
X111917Y-31558D01*
X111860Y-31643D01*
X111831Y-31758D01*
X111831Y-31986D01*
X111860Y-32043D01*
X111888Y-32072D01*
X111945Y-32101D01*
X112060Y-32101D01*
X112117Y-32072D01*
X112145Y-32043D01*
X112174Y-31986D01*
X112174Y-31843D01*
X112145Y-31786D01*
X112117Y-31758D01*
X112060Y-31729D01*
X111945Y-31729D01*
X111888Y-31758D01*
X111860Y-31786D01*
X111831Y-31843D01*
X106358Y-32101D02*
X106358Y-31501D01*
X106586Y-31501D01*
X106643Y-31529D01*
X106672Y-31558D01*
X106700Y-31615D01*
X106700Y-31701D01*
X106672Y-31758D01*
X106643Y-31786D01*
X106586Y-31815D01*
X106358Y-31815D01*
X107272Y-32101D02*
X106929Y-32101D01*
X107100Y-32101D02*
X107100Y-31501D01*
X107043Y-31586D01*
X106986Y-31643D01*
X106929Y-31672D01*
X107815Y-31501D02*
X107529Y-31501D01*
X107500Y-31786D01*
X107529Y-31758D01*
X107586Y-31729D01*
X107729Y-31729D01*
X107786Y-31758D01*
X107815Y-31786D01*
X107843Y-31843D01*
X107843Y-31986D01*
X107815Y-32043D01*
X107786Y-32072D01*
X107729Y-32101D01*
X107586Y-32101D01*
X107529Y-32072D01*
X107500Y-32043D01*
X102027Y-32101D02*
X102027Y-31501D01*
X102255Y-31501D01*
X102313Y-31529D01*
X102341Y-31558D01*
X102370Y-31615D01*
X102370Y-31701D01*
X102341Y-31758D01*
X102313Y-31786D01*
X102255Y-31815D01*
X102027Y-31815D01*
X102941Y-32101D02*
X102598Y-32101D01*
X102770Y-32101D02*
X102770Y-31501D01*
X102713Y-31586D01*
X102655Y-31643D01*
X102598Y-31672D01*
X103455Y-31701D02*
X103455Y-32101D01*
X103313Y-31472D02*
X103170Y-31901D01*
X103541Y-31901D01*
X97696Y-32101D02*
X97696Y-31501D01*
X97925Y-31501D01*
X97982Y-31529D01*
X98010Y-31558D01*
X98039Y-31615D01*
X98039Y-31701D01*
X98010Y-31758D01*
X97982Y-31786D01*
X97925Y-31815D01*
X97696Y-31815D01*
X98610Y-32101D02*
X98268Y-32101D01*
X98439Y-32101D02*
X98439Y-31501D01*
X98382Y-31586D01*
X98325Y-31643D01*
X98268Y-31672D01*
X98810Y-31501D02*
X99182Y-31501D01*
X98982Y-31729D01*
X99068Y-31729D01*
X99125Y-31758D01*
X99153Y-31786D01*
X99182Y-31843D01*
X99182Y-31986D01*
X99153Y-32043D01*
X99125Y-32072D01*
X99068Y-32101D01*
X98896Y-32101D01*
X98839Y-32072D01*
X98810Y-32043D01*
X93365Y-32101D02*
X93365Y-31501D01*
X93594Y-31501D01*
X93651Y-31529D01*
X93680Y-31558D01*
X93708Y-31615D01*
X93708Y-31701D01*
X93680Y-31758D01*
X93651Y-31786D01*
X93594Y-31815D01*
X93365Y-31815D01*
X94280Y-32101D02*
X93937Y-32101D01*
X94108Y-32101D02*
X94108Y-31501D01*
X94051Y-31586D01*
X93994Y-31643D01*
X93937Y-31672D01*
X94508Y-31558D02*
X94537Y-31529D01*
X94594Y-31501D01*
X94737Y-31501D01*
X94794Y-31529D01*
X94823Y-31558D01*
X94851Y-31615D01*
X94851Y-31672D01*
X94823Y-31758D01*
X94480Y-32101D01*
X94851Y-32101D01*
X89035Y-32101D02*
X89035Y-31501D01*
X89263Y-31501D01*
X89320Y-31529D01*
X89349Y-31558D01*
X89378Y-31615D01*
X89378Y-31701D01*
X89349Y-31758D01*
X89320Y-31786D01*
X89263Y-31815D01*
X89035Y-31815D01*
X89949Y-32101D02*
X89606Y-32101D01*
X89778Y-32101D02*
X89778Y-31501D01*
X89720Y-31586D01*
X89663Y-31643D01*
X89606Y-31672D01*
X90520Y-32101D02*
X90178Y-32101D01*
X90349Y-32101D02*
X90349Y-31501D01*
X90292Y-31586D01*
X90235Y-31643D01*
X90178Y-31672D01*
X84704Y-32101D02*
X84704Y-31501D01*
X84933Y-31501D01*
X84990Y-31529D01*
X85018Y-31558D01*
X85047Y-31615D01*
X85047Y-31701D01*
X85018Y-31758D01*
X84990Y-31786D01*
X84933Y-31815D01*
X84704Y-31815D01*
X85618Y-32101D02*
X85275Y-32101D01*
X85447Y-32101D02*
X85447Y-31501D01*
X85390Y-31586D01*
X85333Y-31643D01*
X85275Y-31672D01*
X85990Y-31501D02*
X86047Y-31501D01*
X86104Y-31529D01*
X86133Y-31558D01*
X86161Y-31615D01*
X86190Y-31729D01*
X86190Y-31872D01*
X86161Y-31986D01*
X86133Y-32043D01*
X86104Y-32072D01*
X86047Y-32101D01*
X85990Y-32101D01*
X85933Y-32072D01*
X85904Y-32043D01*
X85875Y-31986D01*
X85847Y-31872D01*
X85847Y-31729D01*
X85875Y-31615D01*
X85904Y-31558D01*
X85933Y-31529D01*
X85990Y-31501D01*
X80659Y-32101D02*
X80659Y-31501D01*
X80888Y-31501D01*
X80945Y-31529D01*
X80973Y-31558D01*
X81002Y-31615D01*
X81002Y-31701D01*
X80973Y-31758D01*
X80945Y-31786D01*
X80888Y-31815D01*
X80659Y-31815D01*
X81288Y-32101D02*
X81402Y-32101D01*
X81459Y-32072D01*
X81488Y-32043D01*
X81545Y-31958D01*
X81573Y-31843D01*
X81573Y-31615D01*
X81545Y-31558D01*
X81516Y-31529D01*
X81459Y-31501D01*
X81345Y-31501D01*
X81288Y-31529D01*
X81259Y-31558D01*
X81230Y-31615D01*
X81230Y-31758D01*
X81259Y-31815D01*
X81288Y-31843D01*
X81345Y-31872D01*
X81459Y-31872D01*
X81516Y-31843D01*
X81545Y-31815D01*
X81573Y-31758D01*
X76328Y-32101D02*
X76328Y-31501D01*
X76557Y-31501D01*
X76614Y-31529D01*
X76643Y-31558D01*
X76671Y-31615D01*
X76671Y-31701D01*
X76643Y-31758D01*
X76614Y-31786D01*
X76557Y-31815D01*
X76328Y-31815D01*
X77014Y-31758D02*
X76957Y-31729D01*
X76928Y-31701D01*
X76900Y-31643D01*
X76900Y-31615D01*
X76928Y-31558D01*
X76957Y-31529D01*
X77014Y-31501D01*
X77128Y-31501D01*
X77185Y-31529D01*
X77214Y-31558D01*
X77243Y-31615D01*
X77243Y-31643D01*
X77214Y-31701D01*
X77185Y-31729D01*
X77128Y-31758D01*
X77014Y-31758D01*
X76957Y-31786D01*
X76928Y-31815D01*
X76900Y-31872D01*
X76900Y-31986D01*
X76928Y-32043D01*
X76957Y-32072D01*
X77014Y-32101D01*
X77128Y-32101D01*
X77185Y-32072D01*
X77214Y-32043D01*
X77243Y-31986D01*
X77243Y-31872D01*
X77214Y-31815D01*
X77185Y-31786D01*
X77128Y-31758D01*
X71998Y-32101D02*
X71998Y-31501D01*
X72226Y-31501D01*
X72283Y-31529D01*
X72312Y-31558D01*
X72340Y-31615D01*
X72340Y-31701D01*
X72312Y-31758D01*
X72283Y-31786D01*
X72226Y-31815D01*
X71998Y-31815D01*
X72540Y-31501D02*
X72940Y-31501D01*
X72683Y-32101D01*
X67667Y-32101D02*
X67667Y-31501D01*
X67895Y-31501D01*
X67953Y-31529D01*
X67981Y-31558D01*
X68010Y-31615D01*
X68010Y-31701D01*
X67981Y-31758D01*
X67953Y-31786D01*
X67895Y-31815D01*
X67667Y-31815D01*
X68524Y-31501D02*
X68410Y-31501D01*
X68353Y-31529D01*
X68324Y-31558D01*
X68267Y-31643D01*
X68238Y-31758D01*
X68238Y-31986D01*
X68267Y-32043D01*
X68295Y-32072D01*
X68353Y-32101D01*
X68467Y-32101D01*
X68524Y-32072D01*
X68553Y-32043D01*
X68581Y-31986D01*
X68581Y-31843D01*
X68553Y-31786D01*
X68524Y-31758D01*
X68467Y-31729D01*
X68353Y-31729D01*
X68295Y-31758D01*
X68267Y-31786D01*
X68238Y-31843D01*
X63336Y-32101D02*
X63336Y-31501D01*
X63565Y-31501D01*
X63622Y-31529D01*
X63650Y-31558D01*
X63679Y-31615D01*
X63679Y-31701D01*
X63650Y-31758D01*
X63622Y-31786D01*
X63565Y-31815D01*
X63336Y-31815D01*
X64222Y-31501D02*
X63936Y-31501D01*
X63908Y-31786D01*
X63936Y-31758D01*
X63993Y-31729D01*
X64136Y-31729D01*
X64193Y-31758D01*
X64222Y-31786D01*
X64250Y-31843D01*
X64250Y-31986D01*
X64222Y-32043D01*
X64193Y-32072D01*
X64136Y-32101D01*
X63993Y-32101D01*
X63936Y-32072D01*
X63908Y-32043D01*
X59005Y-32101D02*
X59005Y-31501D01*
X59234Y-31501D01*
X59291Y-31529D01*
X59320Y-31558D01*
X59348Y-31615D01*
X59348Y-31701D01*
X59320Y-31758D01*
X59291Y-31786D01*
X59234Y-31815D01*
X59005Y-31815D01*
X59863Y-31701D02*
X59863Y-32101D01*
X59720Y-31472D02*
X59577Y-31901D01*
X59948Y-31901D01*
X54675Y-32101D02*
X54675Y-31501D01*
X54903Y-31501D01*
X54960Y-31529D01*
X54989Y-31558D01*
X55018Y-31615D01*
X55018Y-31701D01*
X54989Y-31758D01*
X54960Y-31786D01*
X54903Y-31815D01*
X54675Y-31815D01*
X55218Y-31501D02*
X55589Y-31501D01*
X55389Y-31729D01*
X55475Y-31729D01*
X55532Y-31758D01*
X55560Y-31786D01*
X55589Y-31843D01*
X55589Y-31986D01*
X55560Y-32043D01*
X55532Y-32072D01*
X55475Y-32101D01*
X55303Y-32101D01*
X55246Y-32072D01*
X55218Y-32043D01*
X50344Y-32101D02*
X50344Y-31501D01*
X50573Y-31501D01*
X50630Y-31529D01*
X50658Y-31558D01*
X50687Y-31615D01*
X50687Y-31701D01*
X50658Y-31758D01*
X50630Y-31786D01*
X50573Y-31815D01*
X50344Y-31815D01*
X50915Y-31558D02*
X50944Y-31529D01*
X51001Y-31501D01*
X51144Y-31501D01*
X51201Y-31529D01*
X51230Y-31558D01*
X51258Y-31615D01*
X51258Y-31672D01*
X51230Y-31758D01*
X50887Y-32101D01*
X51258Y-32101D01*
X46013Y-32101D02*
X46013Y-31501D01*
X46242Y-31501D01*
X46299Y-31529D01*
X46328Y-31558D01*
X46356Y-31615D01*
X46356Y-31701D01*
X46328Y-31758D01*
X46299Y-31786D01*
X46242Y-31815D01*
X46013Y-31815D01*
X46928Y-32101D02*
X46585Y-32101D01*
X46756Y-32101D02*
X46756Y-31501D01*
X46699Y-31586D01*
X46642Y-31643D01*
X46585Y-31672D01*
X118384Y-49744D02*
X117784Y-49744D01*
X117784Y-49515D01*
X117813Y-49458D01*
X117841Y-49430D01*
X117898Y-49401D01*
X117984Y-49401D01*
X118041Y-49430D01*
X118070Y-49458D01*
X118098Y-49515D01*
X118098Y-49744D01*
X118384Y-48830D02*
X118384Y-49172D01*
X118384Y-49001D02*
X117784Y-49001D01*
X117870Y-49058D01*
X117927Y-49115D01*
X117956Y-49172D01*
X118041Y-48487D02*
X118013Y-48544D01*
X117984Y-48572D01*
X117927Y-48601D01*
X117898Y-48601D01*
X117841Y-48572D01*
X117813Y-48544D01*
X117784Y-48487D01*
X117784Y-48372D01*
X117813Y-48315D01*
X117841Y-48287D01*
X117898Y-48258D01*
X117927Y-48258D01*
X117984Y-48287D01*
X118013Y-48315D01*
X118041Y-48372D01*
X118041Y-48487D01*
X118070Y-48544D01*
X118098Y-48572D01*
X118156Y-48601D01*
X118270Y-48601D01*
X118327Y-48572D01*
X118356Y-48544D01*
X118384Y-48487D01*
X118384Y-48372D01*
X118356Y-48315D01*
X118327Y-48287D01*
X118270Y-48258D01*
X118156Y-48258D01*
X118098Y-48287D01*
X118070Y-48315D01*
X118041Y-48372D01*
X118384Y-44429D02*
X117784Y-44429D01*
X117784Y-44200D01*
X117813Y-44143D01*
X117841Y-44115D01*
X117898Y-44086D01*
X117984Y-44086D01*
X118041Y-44115D01*
X118070Y-44143D01*
X118098Y-44200D01*
X118098Y-44429D01*
X118384Y-43515D02*
X118384Y-43857D01*
X118384Y-43686D02*
X117784Y-43686D01*
X117870Y-43743D01*
X117927Y-43800D01*
X117956Y-43857D01*
X117784Y-43315D02*
X117784Y-42915D01*
X118384Y-43172D01*
G54D13*
X98387Y-41707D02*
X98349Y-41678D01*
X98310Y-41621D01*
X98253Y-41536D01*
X98215Y-41507D01*
X98177Y-41507D01*
X98196Y-41650D02*
X98158Y-41621D01*
X98120Y-41564D01*
X98101Y-41450D01*
X98101Y-41250D01*
X98120Y-41136D01*
X98158Y-41078D01*
X98196Y-41050D01*
X98272Y-41050D01*
X98310Y-41078D01*
X98349Y-41136D01*
X98368Y-41250D01*
X98368Y-41450D01*
X98349Y-41564D01*
X98310Y-41621D01*
X98272Y-41650D01*
X98196Y-41650D01*
X98710Y-41250D02*
X98710Y-41650D01*
X98615Y-41021D02*
X98520Y-41450D01*
X98768Y-41450D01*
X113008Y-52894D02*
X113493Y-52894D01*
X113551Y-52875D01*
X113579Y-52856D01*
X113608Y-52818D01*
X113608Y-52742D01*
X113579Y-52704D01*
X113551Y-52685D01*
X113493Y-52666D01*
X113008Y-52666D01*
X113608Y-52266D02*
X113608Y-52494D01*
X113608Y-52380D02*
X113008Y-52380D01*
X113093Y-52418D01*
X113151Y-52456D01*
X113179Y-52494D01*
G54D20*
X88958Y-53310D02*
X88958Y-52610D01*
X89108Y-53110D01*
X89258Y-52610D01*
X89258Y-53310D01*
X89729Y-53244D02*
X89708Y-53277D01*
X89644Y-53310D01*
X89601Y-53310D01*
X89537Y-53277D01*
X89494Y-53210D01*
X89472Y-53144D01*
X89451Y-53010D01*
X89451Y-52910D01*
X89472Y-52777D01*
X89494Y-52710D01*
X89537Y-52644D01*
X89601Y-52610D01*
X89644Y-52610D01*
X89708Y-52644D01*
X89729Y-52677D01*
X89922Y-52610D02*
X89922Y-53177D01*
X89944Y-53244D01*
X89965Y-53277D01*
X90008Y-53310D01*
X90094Y-53310D01*
X90137Y-53277D01*
X90158Y-53244D01*
X90179Y-53177D01*
X90179Y-52610D01*
X90629Y-53310D02*
X90372Y-53310D01*
X90501Y-53310D02*
X90501Y-52610D01*
X90458Y-52710D01*
X90415Y-52777D01*
X90372Y-52810D01*
G54D18*
G54D13*
X115402Y-59147D02*
X115002Y-59147D01*
X115002Y-58994D01*
X115021Y-58956D01*
X115040Y-58937D01*
X115078Y-58918D01*
X115135Y-58918D01*
X115173Y-58937D01*
X115192Y-58956D01*
X115211Y-58994D01*
X115211Y-59147D01*
X115040Y-58766D02*
X115021Y-58747D01*
X115002Y-58709D01*
X115002Y-58613D01*
X115021Y-58575D01*
X115040Y-58556D01*
X115078Y-58537D01*
X115116Y-58537D01*
X115173Y-58556D01*
X115402Y-58785D01*
X115402Y-58537D01*
X115002Y-58289D02*
X115002Y-58251D01*
X115021Y-58213D01*
X115040Y-58194D01*
X115078Y-58175D01*
X115154Y-58156D01*
X115249Y-58156D01*
X115325Y-58175D01*
X115363Y-58194D01*
X115383Y-58213D01*
X115402Y-58251D01*
X115402Y-58289D01*
X115383Y-58328D01*
X115363Y-58347D01*
X115325Y-58366D01*
X115249Y-58385D01*
X115154Y-58385D01*
X115078Y-58366D01*
X115040Y-58347D01*
X115021Y-58328D01*
X115002Y-58289D01*
X40106Y-59147D02*
X39706Y-59147D01*
X39706Y-58994D01*
X39725Y-58956D01*
X39744Y-58937D01*
X39782Y-58918D01*
X39840Y-58918D01*
X39878Y-58937D01*
X39897Y-58956D01*
X39916Y-58994D01*
X39916Y-59147D01*
X40106Y-58537D02*
X40106Y-58766D01*
X40106Y-58651D02*
X39706Y-58651D01*
X39763Y-58689D01*
X39802Y-58728D01*
X39821Y-58766D01*
X40106Y-58347D02*
X40106Y-58270D01*
X40087Y-58232D01*
X40068Y-58213D01*
X40011Y-58175D01*
X39935Y-58156D01*
X39782Y-58156D01*
X39744Y-58175D01*
X39725Y-58194D01*
X39706Y-58232D01*
X39706Y-58309D01*
X39725Y-58347D01*
X39744Y-58366D01*
X39782Y-58385D01*
X39878Y-58385D01*
X39916Y-58366D01*
X39935Y-58347D01*
X39954Y-58309D01*
X39954Y-58232D01*
X39935Y-58194D01*
X39916Y-58175D01*
X39878Y-58156D01*
G54D15*
X92095Y-59748D02*
X92309Y-59748D01*
X92352Y-59762D01*
X92380Y-59790D01*
X92395Y-59833D01*
X92395Y-59862D01*
X92395Y-59605D02*
X92095Y-59605D01*
X92095Y-59490D01*
X92109Y-59462D01*
X92123Y-59448D01*
X92152Y-59433D01*
X92195Y-59433D01*
X92223Y-59448D01*
X92237Y-59462D01*
X92252Y-59490D01*
X92252Y-59605D01*
X92123Y-59319D02*
X92109Y-59305D01*
X92095Y-59276D01*
X92095Y-59205D01*
X92109Y-59176D01*
X92123Y-59162D01*
X92152Y-59148D01*
X92180Y-59148D01*
X92223Y-59162D01*
X92395Y-59333D01*
X92395Y-59148D01*
G54D10*
X103668Y-54730D02*
X103686Y-54674D01*
X103686Y-54580D01*
X103668Y-54543D01*
X103649Y-54524D01*
X103611Y-54505D01*
X103574Y-54505D01*
X103536Y-54524D01*
X103518Y-54543D01*
X103499Y-54580D01*
X103480Y-54655D01*
X103461Y-54693D01*
X103443Y-54711D01*
X103405Y-54730D01*
X103368Y-54730D01*
X103330Y-54711D01*
X103311Y-54693D01*
X103293Y-54655D01*
X103293Y-54561D01*
X103311Y-54505D01*
X103686Y-54336D02*
X103293Y-54336D01*
X103293Y-54243D01*
X103311Y-54186D01*
X103349Y-54149D01*
X103386Y-54130D01*
X103461Y-54111D01*
X103518Y-54111D01*
X103593Y-54130D01*
X103630Y-54149D01*
X103668Y-54186D01*
X103686Y-54243D01*
X103686Y-54336D01*
X103686Y-53737D02*
X103686Y-53962D01*
X103686Y-53849D02*
X103293Y-53849D01*
X103349Y-53887D01*
X103386Y-53924D01*
X103405Y-53962D01*
G54D15*
X81666Y-57161D02*
X81666Y-57447D01*
X81647Y-57504D01*
X81609Y-57542D01*
X81552Y-57561D01*
X81514Y-57561D01*
X81857Y-57561D02*
X81857Y-57161D01*
X82009Y-57161D01*
X82047Y-57180D01*
X82066Y-57200D01*
X82085Y-57238D01*
X82085Y-57295D01*
X82066Y-57333D01*
X82047Y-57352D01*
X82009Y-57371D01*
X81857Y-57371D01*
X82219Y-57161D02*
X82466Y-57161D01*
X82333Y-57314D01*
X82390Y-57314D01*
X82428Y-57333D01*
X82447Y-57352D01*
X82466Y-57390D01*
X82466Y-57485D01*
X82447Y-57523D01*
X82428Y-57542D01*
X82390Y-57561D01*
X82276Y-57561D01*
X82238Y-57542D01*
X82219Y-57523D01*
M02*
